<?xml version="1.0" encoding="utf-8"?>
<!-- Generator: Adobe Illustrator 28.1.0, SVG Export Plug-In . SVG Version: 6.00 Build 0)  -->
<svg version="1.1" id="Capa_1" xmlns="http://www.w3.org/2000/svg" xmlns:xlink="http://www.w3.org/1999/xlink" x="0px" y="0px"
	 viewBox="0 0 1920 1080" style="enable-background:new 0 0 1920 1080;" xml:space="preserve">
<style type="text/css">
	.st0{fill:#FFFFFF;}
</style>
<g>
	<path class="st0" d="M676.56,676.27c0-96.72,0-193.44,0-290.16c188.96,0,377.92,0,566.88,0c0,96.72,0,193.44,0,290.16
		C1054.48,676.27,865.52,676.27,676.56,676.27z M945.67,473.36c12.18-0.75,16.57-0.7,27.57-3.99c6.65-1.99,12.99-4.7,18.86-8.41
		c4.04-2.55,7.74-5.52,10.51-9.51c1.97-2.84,3.28-5.91,2.68-9.43c-0.66-3.85-1.5-7.68-2.27-11.51c-0.05-0.27-0.21-0.52-0.33-0.77
		c-1.64-3.27-4.37-5.37-7.59-6.86c-4.4-2.04-9.09-3.04-13.91-3.31c-11.21-0.65-22.15,0.78-32.83,4.35
		c-5.89,1.97-11.55,4.37-16.82,7.69c-3.52,2.21-6.71,4.77-9.34,7.98c-3.21,3.92-4.68,8.3-3.24,13.39c0.5,1.76,0.83,3.58,1.09,5.4
		c0.51,3.52,1.73,6.61,4.57,8.95c2.46,2.03,5.28,3.37,8.28,4.2C937.6,472.8,942.37,473.67,945.67,473.36z M949.67,496.57
		c-0.12-0.06-0.25-0.11-0.37-0.17c0.04-0.41,0.05-0.83,0.11-1.24c0.42-2.56,0.92-5.12,1.26-7.69c0.21-1.58,0.29-3.19,0.2-4.78
		c-0.12-2.1-1.66-3.31-3.7-2.9c-1.27,0.25-2.55,0.7-3.68,1.32c-3.98,2.17-7.18,5.3-10.27,8.56c-0.63,0.66-0.43,1.16,0.14,1.74
		c0.6,0.62,1,0.31,1.52-0.12c1.03-0.87,2.06-1.77,3.19-2.5c0.97-0.63,1.65-0.28,1.92,0.86c0.12,0.53,0.14,1.12,0.09,1.67
		c-0.2,2.27-0.3,4.56-0.68,6.8c-1.15,6.85-2.42,13.69-3.63,20.53c-0.07,0.41-0.02,0.84-0.02,1.26c0.49-0.01,1.03,0.1,1.48-0.05
		c2.73-0.89,5.45-1.81,8.14-2.81c0.44-0.16,0.92-0.74,1.03-1.2c0.78-3.42,1.28-6.91,2.23-10.28c1.74-6.2,5.36-11.27,10.04-15.62
		c0.55-0.51,1.2-0.93,1.87-1.28c0.86-0.45,1.62-0.05,1.79,0.9c0.09,0.5,0.11,1.05,0.04,1.55c-0.62,4.11-1.28,8.2-1.9,12.31
		c-0.57,3.75-1.16,7.5-1.62,11.27c-0.12,1.03,0.1,2.15,0.36,3.18c0.33,1.34,1.48,2.25,2.84,2.08c1.32-0.16,2.69-0.48,3.86-1.09
		c3.97-2.07,6.99-5.28,9.82-8.67c0.52-0.63,0.56-1.14-0.11-1.74c-0.68-0.62-1.17-0.5-1.71,0.14c-0.28,0.34-0.56,0.72-0.93,0.93
		c-0.79,0.46-1.74,1.28-2.42,1.11c-1.13-0.27-0.84-1.62-0.71-2.51c0.83-5.52,1.77-11.03,2.63-16.55c0.43-2.76,0.91-5.53,1.06-8.31
		c0.14-2.68-1.47-3.9-4.08-3.41c-2.59,0.48-4.7,1.98-6.74,3.5c-4.67,3.49-8.7,7.64-12.19,12.31
		C950.27,495.99,949.96,496.27,949.67,496.57z M915.64,504.7c0.1,0.05,0.19,0.1,0.29,0.15c0,0.23,0.04,0.47-0.01,0.69
		c-0.32,1.73-0.77,3.44-0.96,5.18c-0.22,2.05-0.39,4.14-0.27,6.2c0.12,2.12,1.84,3.35,3.93,3.01c0.97-0.16,1.96-0.49,2.82-0.96
		c4.09-2.21,7.2-5.52,10.07-9.1c0.52-0.65,0.31-1.03-0.24-1.49c-0.57-0.47-1.05-0.69-1.64-0.04c-0.53,0.59-1.06,1.22-1.71,1.68
		c-0.5,0.35-1.44,0.81-1.72,0.6c-0.47-0.35-0.58-1.19-0.8-1.84c-0.07-0.21-0.03-0.48,0-0.71c0.82-5.45,1.54-10.91,2.53-16.33
		c0.65-3.57,1.69-7.06,2.58-10.58c0.22-0.88-0.02-1.28-0.98-1.25c-2,0.06-4,0.06-6,0.09c-5.79,0.07-11.22,1.38-16.16,4.53
		c-4.79,3.06-8.56,7-10.98,12.2c-2.33,4.99-3.1,10.3-3.31,15.71c-0.06,1.58,0.13,3.19,0.41,4.75c0.31,1.69,1.71,2.72,3.42,2.81
		c2.11,0.11,3.89-0.83,5.57-1.92c4.83-3.13,8.64-7.31,11.99-11.94C914.84,505.64,915.25,505.18,915.64,504.7z M864.01,520.28
		c0.97-0.06,2.33-0.11,3.68-0.25c6.29-0.64,11.84-2.95,16.25-7.58c4.5-4.73,6.1-11.8,1.92-17.76c-2.21-3.15-5.1-5.59-8.06-7.99
		c-2.5-2.04-5.05-4.07-7.26-6.4c-2.32-2.46-2.4-6.18-0.74-8.8c2.23-3.51,6.64-3.82,10.09-2.52c2.71,1.02,4.02,3.28,4.55,6.03
		c0.22,1.13,0.91,1.64,1.7,1.03c1.7-1.31,3.48-2.6,4.84-4.22c1.77-2.1,1.3-4.18-1.02-5.69c-0.91-0.6-2-1.02-3.07-1.26
		c-4.7-1.06-9.37-0.78-13.97,0.65c-4.44,1.38-8.21,3.78-10.88,7.63c-3.47,4.99-3.54,11.78,1.48,16.34c1.86,1.69,3.9,3.19,5.74,4.9
		c2.46,2.27,5.07,4.45,7.15,7.03c4.38,5.44,2.21,12.92-4.21,14.49c-5.27,1.29-11.07-0.95-11.97-7.58c-0.18-1.32-0.81-1.77-1.79-1.04
		c-1.6,1.18-3.19,2.41-4.6,3.8c-0.87,0.86-1.53,2.02-2.01,3.16c-0.62,1.48,1.19,3.44,2.58,4.26
		C857.28,520.15,860.45,520.19,864.01,520.28z M1002.74,508.27c0.16,1.55,0.22,3.12,0.51,4.64c0.73,3.9,3.77,6.68,7.65,7
		c4.98,0.42,9.63-0.73,13.83-3.42c5.67-3.64,9.65-8.67,11.87-15.04c1.7-4.88,2.34-9.9,1.19-14.98c-0.33-1.45-1.13-2.95-2.1-4.08
		c-2.43-2.82-5.84-3.2-9.25-2.79c-7.08,0.86-12.83,4.28-17.24,9.83C1004.84,494.92,1002.9,501.29,1002.74,508.27z M998.07,487.53
		c3.75,0.21,7.02-1.6,9.63-4.77c0.22-0.26,0.22-0.7,0.33-1.05c-0.4,0.01-0.82-0.06-1.19,0.04c-0.61,0.16-1.18,0.63-1.77,0.63
		c-2.94,0.01-5.89-0.06-8.83-0.18c-0.22-0.01-0.57-0.61-0.58-0.94c-0.01-0.59,0.16-1.19,0.34-1.76c0.81-2.54,1.68-5.07,2.44-7.62
		c0.15-0.5-0.07-1.1-0.12-1.65c-0.51,0.18-1.14,0.22-1.5,0.55c-1.58,1.47-3.05,3.05-4.62,4.53c-4.58,4.3-9.33,8.38-14.82,11.53
		c-0.29,0.16-0.37,0.69-0.55,1.04c0.36,0.17,0.71,0.44,1.09,0.49c0.33,0.05,0.69-0.16,1.04-0.23c1.52-0.32,3.03-0.68,4.57-0.93
		c1.16-0.2,1.44,0.16,1.2,1.34c-0.14,0.7-0.33,1.4-0.45,2.11c-0.92,5.44-1.89,10.86-2.71,16.31c-0.46,3.08-0.81,6.18-0.96,9.29
		c-0.12,2.57,1.64,4.04,4.17,3.68c1.08-0.15,2.17-0.56,3.16-1.06c4.29-2.19,7.49-5.66,10.58-9.25c0.76-0.88,0.18-1.43-0.44-2.01
		c-0.67-0.63-1.03-0.13-1.47,0.31c-0.87,0.88-1.72,1.78-2.68,2.55c-0.37,0.3-1.13,0.49-1.5,0.31c-0.36-0.18-0.63-0.89-0.64-1.38
		c-0.04-1.23,0-2.49,0.17-3.71c0.73-5.22,1.49-10.44,2.3-15.65C994.63,487.57,994.7,487.59,998.07,487.53z M1044.37,520.18
		c4.79-0.26,9.05-1.74,12.72-4.78c2.52-2.08,4.48-4.56,5.02-7.91c0.75-4.64-1.1-8.34-4.18-11.6c-1.78-1.89-3.57-3.77-5.25-5.75
		c-0.57-0.67-1.03-1.58-1.15-2.44c-0.31-2.22,2.32-4.09,4.82-3.59c2.36,0.48,4.09,1.92,5.62,3.65c1.76,1.99,2.02,2.01,3.97,0.1
		c0.17-0.17,0.34-0.34,0.5-0.52c2.38-2.88,0.99-6.79-2.7-7.42c-6.63-1.12-12.35,0.76-17.04,5.55c-3.33,3.4-4.84,8.47-2.02,13.19
		c1.33,2.24,3.13,4.21,4.79,6.24c1.24,1.51,2.7,2.84,3.9,4.38c0.98,1.27,1.22,2.82,0.34,4.28c-0.8,1.34-2.09,2.06-3.64,1.85
		c-1.27-0.17-2.59-0.52-3.73-1.1c-1.96-1.01-3.33-2.73-4.46-4.59c-0.48-0.8-0.93-0.78-1.48-0.17c-0.75,0.83-1.54,1.64-2.19,2.54
		c-2.44,3.4-0.53,6.76,2.41,7.41C1041.86,519.78,1043.12,519.96,1044.37,520.18z M1011.34,533.93c-0.89-0.66-1.55-1.29-2.33-1.7
		c-0.66-0.35-1.49-0.35-2.16-0.67c-0.42-0.2-0.69-0.72-1.02-1.09c0.45-0.26,0.89-0.69,1.37-0.73c0.7-0.06,1.42,0.26,2.12,0.23
		c0.38-0.02,0.83-0.35,1.09-0.67c0.1-0.12-0.17-0.81-0.41-0.9c-1.66-0.65-3.36-0.77-5.01,0.04c-0.94,0.46-1.43,1.29-1.42,2.34
		c0.01,1.04,0.46,1.87,1.51,2.22c0.79,0.27,1.64,0.4,2.38,0.76c0.51,0.25,0.89,0.77,1.32,1.17c-0.51,0.3-1.02,0.84-1.54,0.85
		c-0.8,0.01-1.6-0.41-2.41-0.52c-0.35-0.05-0.91,0.11-1.07,0.37c-0.15,0.25-0.05,0.88,0.18,1.1c1.28,1.24,5.34,1,6.46-0.39
		c0.41-0.5,0.62-1.17,1.01-1.94c0.34,0.41,0.54,0.74,0.82,0.97c0.78,0.65,1.57,1.31,2.41,1.89c0.67,0.46,1.47,0.75,2.13,1.23
		c1.05,0.77,2.09,1.44,3.48,1.19c0.79-0.14,1.77-1.03,1.55-1.5c-0.39-0.85-1-0.66-1.71-0.39c-0.3,0.11-0.75-0.18-1.13-0.28
		c0.19-0.3,0.32-0.69,0.59-0.89c1.93-1.47,2.57-3.79,1.61-5.97c-0.83-1.88-3.36-3.09-5.55-2.65c-2.59,0.52-4.13,2.24-4.17,4.65
		C1011.43,533.05,1011.38,533.47,1011.34,533.93z M907.11,532.79C907.11,532.79,907.11,532.79,907.11,532.79
		c0,1.08,0.02,2.16,0,3.24c-0.01,0.73-0.03,1.36,1,1.37c0.95,0.01,1.27-0.37,1.24-1.3c-0.01-0.41,0.28-1.14,0.51-1.17
		c0.53-0.08,1.14,0.11,1.66,0.34c0.29,0.13,0.5,0.52,0.66,0.83c0.54,1.07,1.36,1.49,2.56,1.25c0.34-0.07,0.71,0.01,1.07,0.04
		c0.93,0.07,1.77,0.02,2.04-1.14c0.05-0.24,0.31-0.6,0.51-0.61c1.18-0.12,2.38-0.28,3.54-0.15c0.44,0.05,0.86,0.8,1.19,1.3
		c0.5,0.78,1.22,0.73,1.88,0.46c0.16-0.06,0.08-0.87,0-1.31c-0.07-0.38-0.3-0.74-0.46-1.1c-0.84-1.89-1.62-3.82-2.56-5.66
		c-0.26-0.5-0.98-1.04-1.5-1.06c-0.51-0.02-1.08,0.57-1.56,0.98c-0.22,0.19-0.28,0.56-0.41,0.86c-0.86,1.93-1.68,3.88-2.59,5.78
		c-0.16,0.33-0.86,0.76-1.07,0.65c-1.11-0.56-1.27-1.81-0.48-2.73c0.77-0.9,1.17-1.91,0.77-3.1c-0.43-1.28-1.27-2.15-2.64-2.29
		c-1.35-0.14-2.71-0.13-4.06-0.22c-0.95-0.06-1.29,0.39-1.27,1.29C907.13,530.47,907.11,531.63,907.11,532.79z M839.27,601.38
		c0.12-0.12,0.22-0.23,0.34-0.32c1.54-1.19,1.75-2.81,1.31-4.53c-0.41-1.61-1.63-2.47-3.22-2.61c-1.78-0.16-3.58-0.19-5.37-0.15
		c-0.32,0.01-0.89,0.62-0.9,0.96c-0.06,4.75-0.06,9.5,0,14.25c0,0.35,0.55,1.01,0.85,1.01c2.11,0.01,4.24,0.03,6.32-0.25
		c1.66-0.23,2.89-1.28,3.38-3.01C842.6,604.44,841.8,602.82,839.27,601.38z M1097.78,602.84c0,1.5,0.04,2.86-0.03,4.21
		c-0.01,0.3-0.32,0.72-0.6,0.85c-2.87,1.36-6.41,0.01-7.61-2.93c-0.94-2.31-0.86-4.62,0.35-6.82c0.96-1.75,2.51-2.78,4.49-2.69
		c1.44,0.06,2.85,0.56,4.27,0.9c0.36,0.09,0.7,0.31,1.09,0.49c0.46-1.12,0.23-1.87-0.78-2.36c-2.17-1.06-4.42-1.3-6.75-0.61
		c-3.94,1.17-6.17,5.22-5.41,9.76c0.48,2.84,1.82,5.03,4.62,6.06c2.6,0.96,5.2,0.72,7.69-0.42c0.39-0.18,0.78-0.82,0.8-1.27
		c0.09-1.91,0.03-3.84,0.04-5.75c0.01-0.75-0.33-1.1-1.08-1.1c-1.44,0.01-2.88,0.03-4.32-0.01c-0.66-0.02-0.95,0.2-0.95,0.89
		c0.01,0.73,0.42,0.83,1.02,0.82C1095.61,602.82,1096.61,602.84,1097.78,602.84z M1163.41,632.68c0.67-0.57,1.38-1.04,1.92-1.66
		c2.02-2.3,1-5.52-1.99-6.09c-1.18-0.23-2.47-0.18-3.66,0.02c-1.56,0.26-2.69,1.23-3.06,2.85c-0.38,1.68,0.16,3.07,1.52,4.13
		c0.43,0.34,0.89,0.64,1.31,0.95c-0.82,0.62-1.67,1.11-2.34,1.77c-1.98,1.97-1.47,5.12,1.02,6.19c2.15,0.93,4.38,0.92,6.51-0.06
		c2.55-1.17,3.1-4.46,1.08-6.4C1165.04,633.73,1164.2,633.25,1163.41,632.68z M843.23,632.93c0.14,1.48,0.18,2.64,0.38,3.78
		c0.36,2.01,1.13,3.79,3.29,4.47c3.44,1.09,6.39-0.56,7.26-4.07c0.66-2.68,0.66-5.39,0.07-8.08c-0.64-2.93-2.18-4.27-4.89-4.36
		c-2.76-0.09-4.73,1.31-5.45,4.08C843.51,630.21,843.41,631.73,843.23,632.93z M1123.55,632.89c0.14,1.48,0.18,2.64,0.38,3.77
		c0.35,2.06,1.14,3.87,3.36,4.54c3.48,1.04,6.34-0.62,7.2-4.17c0.64-2.64,0.64-5.31,0.06-7.96c-0.65-2.99-2.23-4.35-4.98-4.4
		c-2.76-0.05-4.68,1.36-5.39,4.15C1123.83,630.25,1123.73,631.73,1123.55,632.89z M753.65,639.2c-0.3,0.9-0.33,1.51,0.59,1.88
		c3.47,1.36,7.4-0.28,8.67-3.77c1.11-3.05,1.1-6.2,0.19-9.3c-0.57-1.94-1.94-3.11-3.99-3.28c-2.15-0.18-4.14,0.28-5.3,2.27
		c-1.18,2.03-1.3,4.27,0.02,6.25c1.27,1.92,3.35,1.95,5.4,1.57c0.75-0.14,1.48-0.43,2.31-0.67c-0.06,1.78-0.4,3.36-1.69,4.55
		C757.99,640.41,755.85,639.79,753.65,639.2z M1033.95,639.21c-0.24,0.86-0.36,1.52,0.54,1.83c2.66,0.91,6.91,0.66,8.53-3.21
		c1.38-3.29,1.38-6.69,0.31-10.07c-0.47-1.5-1.51-2.53-3.09-2.88c-2.07-0.46-4.02-0.2-5.54,1.38c-1.6,1.67-1.63,3.75-1.11,5.85
		c0.35,1.45,1.38,2.28,2.8,2.66c1.87,0.5,3.63,0.11,5.46-0.7c0.02,1.75-0.34,3.27-1.52,4.48
		C1038.46,640.45,1036.23,639.79,1033.95,639.21z M1075.52,626.91c0.33-1.07,0.13-1.66-0.81-1.95c-3.82-1.18-7.34,0.69-8.42,4.55
		c-0.75,2.66-0.71,5.38-0.13,8.06c0.59,2.72,2.37,4.03,5.07,3.9c2.8-0.13,4.77-1.83,5.16-4.43c0.63-4.18-1.85-6.55-6-5.7
		c-0.8,0.16-1.57,0.46-2.42,0.72c-0.01-1.76,0.33-3.34,1.56-4.57C1071.31,625.71,1073.43,626.38,1075.52,626.91z M808.4,626.91
		c0.33-1.05,0.16-1.64-0.78-1.94c-3.74-1.18-7.31,0.65-8.4,4.41c-0.78,2.7-0.75,5.45-0.17,8.18c0.58,2.72,2.36,4.04,5.06,3.92
		c2.8-0.12,4.77-1.81,5.18-4.41c0.65-4.18-1.83-6.57-5.98-5.73c-0.8,0.16-1.58,0.46-2.44,0.72c-0.02-1.74,0.33-3.32,1.54-4.55
		C804.17,625.71,806.29,626.37,808.4,626.91z M787.65,632.06c0-1.74,0.33-3.29,1.5-4.51c1.78-1.87,3.94-1.17,6.01-0.67
		c0.33-1.34,0.2-1.63-0.78-1.93c-3.83-1.17-7.32,0.7-8.4,4.57c-0.74,2.67-0.71,5.38-0.12,8.06c0.59,2.71,2.39,4.02,5.09,3.88
		c2.8-0.14,4.76-1.84,5.14-4.45c0.61-4.2-1.86-6.53-6.03-5.68C789.28,631.5,788.54,631.79,787.65,632.06z M1088.67,626.89
		c0.34-1.32,0.24-1.56-0.66-1.88c-3.5-1.24-7.1,0.44-8.33,3.95c-0.91,2.59-0.87,5.26-0.44,7.92c0.59,3.69,3.02,5.26,6.63,4.37
		c2.81-0.7,4.4-3.66,3.68-6.84c-0.54-2.41-2.75-3.67-5.61-3.14c-0.91,0.17-1.8,0.49-2.76,0.76c0-1.74,0.34-3.32,1.57-4.55
		C1084.52,625.7,1086.64,626.4,1088.67,626.89z M1100.62,635.44c0-3.02,0.01-6.13-0.01-9.24c0-0.36-0.07-0.86-0.31-1.05
		c-0.82-0.65-2.69-0.19-3.25,0.74c-1.03,1.71-2.05,3.42-3.08,5.13c-0.8,1.33-1.62,2.65-2.39,4.01c-0.9,1.58-0.44,2.36,1.32,2.36
		c1.83,0,3.65,0,5.6,0c0,0.94,0.04,1.77-0.01,2.59c-0.06,0.84,0.18,1.27,1.11,1.25c0.86-0.02,1.08-0.42,1.04-1.21
		c-0.05-0.86-0.01-1.72-0.01-2.41c0.82-0.59,2.2,0.45,2.24-1.04C1102.9,634.96,1101.39,636.13,1100.62,635.44z M1039.7,603.91
		c1.32-0.11,2.51-0.14,3.68-0.34c2.64-0.45,4.26-2.48,4.22-5.16c-0.04-2.49-1.5-4.18-4.2-4.53c-1.61-0.21-3.27-0.15-4.9-0.16
		c-0.78,0-0.96,0.56-0.96,1.24c0.01,4.68,0.02,9.35-0.01,14.03c-0.01,0.83,0.37,1.04,1.08,1.04c0.68,0,1.14-0.14,1.11-1
		C1039.66,607.35,1039.7,605.67,1039.7,603.91z M778.13,606.88c-0.59,1.47-0.41,2.09,0.79,2.63c1.52,0.69,3.11,0.95,4.79,0.6
		c2.26-0.46,3.7-1.77,4.02-3.71c0.37-2.28-0.41-3.77-2.64-4.97c-1.09-0.58-2.24-1.07-3.3-1.7c-1.22-0.72-1.62-1.7-1.3-2.81
		c0.28-0.98,1.21-1.65,2.57-1.49c1.23,0.15,2.41,0.63,3.63,0.96c0.49-1.26,0.3-1.92-0.95-2.34c-0.93-0.32-1.94-0.57-2.91-0.55
		c-2.97,0.07-4.69,1.86-4.59,4.53c0.07,1.76,1.06,2.88,2.5,3.67c1.22,0.67,2.5,1.24,3.7,1.96c0.95,0.56,1.29,1.48,1.09,2.59
		c-0.19,1.02-0.84,1.61-1.79,1.9c-1.55,0.48-3,0.14-4.38-0.59C778.95,607.34,778.55,607.11,778.13,606.88z M830.61,639.09
		c-0.05,0.54-0.46,1.32,0.59,1.71c2.3,0.85,4.61,1,6.87-0.09c2.03-0.98,3-3.09,2.65-5.55c-0.27-1.91-1.67-3.23-3.95-3.58
		c-1.13-0.17-2.29-0.18-3.5-0.26c0-1.45,0-2.9,0-4.48c1.89,0,3.72-0.02,5.55,0.01c0.77,0.01,0.96-0.38,0.95-1.04
		c0-0.67-0.31-0.91-0.96-0.9c-2.12,0.02-4.24,0.03-6.36,0c-0.84-0.01-1.13,0.35-1.12,1.16c0.03,2,0.05,4-0.01,6
		c-0.03,0.94,0.36,1.18,1.22,1.1c0.95-0.08,1.92-0.13,2.87-0.04c2.55,0.22,3.8,2.27,2.86,4.63c-0.56,1.39-1.72,2.06-3.12,2
		C833.67,639.68,832.2,639.33,830.61,639.09z M1047.42,627.76c0.91-0.43,1.74-0.91,2.63-1.22c1.73-0.6,3.34,0.09,3.75,1.53
		c0.51,1.77-0.41,3.45-2.22,3.89c-0.72,0.18-1.52,0.03-2.25,0.19c-0.34,0.07-0.59,0.53-0.88,0.81c0.3,0.28,0.56,0.74,0.9,0.8
		c0.89,0.16,1.85,0.03,2.73,0.23c1.85,0.41,2.69,1.65,2.48,3.37c-0.19,1.48-1.4,2.52-3.2,2.38c-1.48-0.11-2.92-0.59-4.45-0.92
		c-0.15,0.6-0.38,1.39,0.54,1.79c2.46,1.07,4.96,1.29,7.38-0.05c1.63-0.9,2.27-2.45,2.13-4.26c-0.14-1.74-1.21-2.8-2.85-3.32
		c-0.19-0.06-0.36-0.15-0.6-0.25c0.37-0.2,0.69-0.35,0.99-0.54c1.46-0.98,1.88-2.43,1.69-4.08c-0.19-1.63-1.11-2.72-2.69-3.17
		c-1.85-0.53-3.63-0.24-5.34,0.63C1047.18,626.06,1047.03,626.79,1047.42,627.76z M766.58,638.83c-0.15,0.6-0.37,1.39,0.54,1.79
		c2.46,1.07,4.96,1.29,7.38-0.05c1.63-0.9,2.27-2.45,2.13-4.26c-0.14-1.74-1.21-2.8-2.85-3.32c-0.19-0.06-0.36-0.15-0.6-0.25
		c0.37-0.2,0.69-0.35,0.99-0.54c1.46-0.98,1.88-2.43,1.69-4.08c-0.19-1.63-1.11-2.72-2.69-3.17c-1.85-0.53-3.63-0.24-5.34,0.63
		c-0.98,0.5-1.13,1.22-0.74,2.2c0.91-0.43,1.74-0.91,2.63-1.22c1.73-0.6,3.34,0.09,3.75,1.53c0.51,1.77-0.41,3.45-2.22,3.89
		c-0.72,0.18-1.52,0.03-2.25,0.19c-0.34,0.07-0.59,0.53-0.88,0.81c0.3,0.28,0.56,0.74,0.9,0.8c0.89,0.16,1.85,0.03,2.73,0.23
		c1.85,0.41,2.69,1.65,2.48,3.37c-0.19,1.48-1.4,2.52-3.2,2.38C769.55,639.63,768.11,639.16,766.58,638.83z M1117.59,632.74
		c0.37-0.2,0.7-0.35,0.99-0.54c1.46-0.98,1.88-2.43,1.69-4.08c-0.19-1.63-1.11-2.72-2.69-3.17c-1.85-0.53-3.63-0.24-5.34,0.63
		c-0.98,0.5-1.13,1.22-0.75,2.2c0.91-0.43,1.74-0.92,2.63-1.23c1.73-0.6,3.34,0.09,3.76,1.53c0.51,1.77-0.4,3.44-2.22,3.89
		c-0.72,0.18-1.52,0.03-2.25,0.19c-0.34,0.07-0.59,0.53-0.88,0.81c0.3,0.28,0.56,0.75,0.9,0.81c0.89,0.16,1.85,0.03,2.73,0.23
		c1.85,0.41,2.7,1.65,2.48,3.37c-0.19,1.48-1.4,2.53-3.2,2.39c-1.48-0.11-2.92-0.59-4.45-0.92c-0.16,0.6-0.37,1.39,0.54,1.79
		c2.45,1.08,4.96,1.29,7.38-0.05c1.63-0.9,2.27-2.45,2.13-4.25c-0.14-1.74-1.21-2.8-2.84-3.33
		C1118,632.92,1117.82,632.83,1117.59,632.74z M878.68,639.31c1.5-1.6,2.93-2.94,4.13-4.46c0.95-1.2,1.89-2.54,2.37-3.97
		c1.21-3.64-1.03-6.51-4.73-6.17c-1.08,0.1-2.18,0.5-3.18,0.95c-1.1,0.49-1.2,1.15-0.6,2.28c0.86-0.41,1.69-0.93,2.59-1.2
		c2.37-0.73,4.18,0.8,3.71,3.22c-0.23,1.17-0.76,2.38-1.46,3.34c-1.07,1.48-2.41,2.77-3.64,4.13c-0.51,0.56-1.15,1.05-1.51,1.69
		c-0.26,0.46-0.31,1.16-0.18,1.68c0.06,0.23,0.79,0.41,1.21,0.42c2.52,0.04,5.04,0,7.56,0.03c0.72,0.01,1.27-0.04,1.27-0.96
		c0-0.91-0.53-0.99-1.26-0.98C882.95,639.33,880.93,639.31,878.68,639.31z M1049.52,604.21c0,0.32-0.02,0.64,0,0.96
		c0.21,2.63,1.59,4.38,3.84,4.89c2.81,0.64,5.33-0.2,6.51-2.32c1.35-2.43,1.33-4.97,0.14-7.47c-0.58-1.22-1.65-1.93-2.95-2.25
		C1052.6,596.94,1049.48,599.5,1049.52,604.21z M844.32,604.14c0,0.36-0.03,0.72,0,1.08c0.21,2.41,1.45,4.12,3.41,4.74
		c2.4,0.76,5.11,0.1,6.49-1.57c1.74-2.11,1.98-6.39,0.27-8.54c-0.65-0.81-1.7-1.53-2.7-1.79
		C847.41,596.91,844.3,599.5,844.32,604.14z M1154.48,600.66c0.93-0.38,1.75-0.81,2.62-1.05c2.74-0.75,4.29,0.72,3.68,3.19
		c-1.76,0.33-3.47,0.49-5.08,1c-1.54,0.49-2.17,1.83-2.03,3.42c0.13,1.47,1.08,2.46,2.62,2.88c1.86,0.51,3.35-0.21,4.8-1.44
		c0.06,0.34,0.02,0.64,0.15,0.76c0.28,0.25,0.64,0.56,0.97,0.56c0.26,0,0.74-0.42,0.74-0.66c-0.01-2.91-0.01-5.83-0.17-8.74
		c-0.08-1.37-1.07-2.19-2.38-2.54c-1.77-0.48-3.48-0.23-5.16,0.44C1154.24,598.89,1153.95,599.56,1154.48,600.66z M797.26,608.66
		c0.06,0.34,0.02,0.65,0.15,0.76c0.28,0.25,0.64,0.55,0.97,0.55c0.26,0,0.74-0.43,0.74-0.66c-0.01-2.91-0.02-5.83-0.17-8.74
		c-0.07-1.32-1.02-2.14-2.27-2.51c-1.84-0.53-3.65-0.29-5.38,0.46c-1.04,0.45-1.17,1-0.57,2.09c0.84-0.34,1.66-0.78,2.54-1.02
		c2.74-0.75,4.29,0.73,3.68,3.19c-1.76,0.33-3.48,0.49-5.09,1c-1.54,0.49-2.17,1.83-2.03,3.42c0.13,1.47,1.08,2.46,2.63,2.88
		C794.32,610.61,795.81,609.89,797.26,608.66z M1124.77,604.52c0.38,0,0.77,0,1.16,0c1.92,0,3.84,0.04,5.76-0.03
		c0.4-0.02,1.04-0.38,1.14-0.71c0.68-2.48-1.05-5.25-3.55-5.81c-3.44-0.77-6.04,1.06-6.7,4.72c-0.84,4.65,1.67,7.85,5.96,7.55
		c0.94-0.07,1.89-0.3,2.8-0.59c1.17-0.38,1.27-0.74,0.79-1.94C1126.76,609.27,1124.37,608.27,1124.77,604.52z M1111.76,599.75
		c-0.05-0.26-0.09-0.33-0.08-0.41c0.02-0.71,0.05-1.36-1.01-1.33c-1.02,0.03-0.88,0.69-0.88,1.33c0,3.19,0.02,6.39-0.01,9.58
		c-0.01,0.74,0.19,1.11,0.99,1.12c0.82,0.01,1.14-0.29,1.12-1.13c-0.04-1.84,0.11-3.68-0.05-5.51c-0.14-1.63,0.68-2.54,1.89-3.28
		c1.66-1.01,3.38-0.21,3.68,1.69c0.1,0.63,0.09,1.27,0.09,1.91c0.01,1.8,0.02,3.59,0,5.39c-0.01,0.7,0.36,1,0.96,0.88
		c0.41-0.09,1.1-0.44,1.1-0.68c0.01-2.83,0.01-5.67-0.21-8.49c-0.13-1.61-1.26-2.6-2.89-2.94
		C1114.55,597.49,1113.15,598.43,1111.76,599.75z M804.98,599.5c0-0.03-0.04-0.1-0.03-0.18c0.04-0.74,0.01-1.35-1.03-1.31
		c-1.03,0.04-0.86,0.72-0.86,1.34c0,3.15,0.01,6.31-0.01,9.46c-0.01,0.75,0.11,1.21,1.01,1.22c0.96,0.01,1.11-0.46,1.1-1.27
		c-0.04-1.92-0.01-3.83-0.01-5.75c0-1.65,1.6-3.29,3.22-3.31c1.53-0.02,2.3,0.97,2.39,3.07c0.02,0.36,0.02,0.72,0.02,1.08
		c0,1.76,0.02,3.51,0,5.27c-0.01,0.71,0.39,0.98,0.97,0.86c0.41-0.09,1.08-0.45,1.08-0.7c0.01-2.79,0.06-5.59-0.2-8.37
		c-0.22-2.32-2.43-3.65-4.68-2.97C806.92,598.28,806.01,598.96,804.98,599.5z M976.84,532.63c0.14,0.05,0.28,0.09,0.43,0.14
		c0,1.13,0.02,2.26-0.01,3.39c-0.02,0.75,0.16,1.28,1.05,1.22c0.75-0.05,0.99-0.44,0.97-1.2c-0.05-2.2,0.01-4.39-0.07-6.59
		c-0.02-0.51-0.42-1.01-0.65-1.51c-0.53,0.26-1.08,0.49-1.59,0.8c-0.18,0.11-0.24,0.4-0.36,0.61c-0.81,1.34-1.62,2.68-2.56,4.23
		c-0.48-0.71-0.8-1.16-1.08-1.62c-0.72-1.15-1.36-2.36-2.16-3.44c-0.26-0.35-0.99-0.59-1.41-0.49c-0.31,0.07-0.66,0.77-0.67,1.2
		c-0.07,2.31-0.02,4.63-0.04,6.95c-0.01,0.88,0.5,1.09,1.24,1.05c0.8-0.04,0.81-0.61,0.81-1.2c-0.01-1.11,0-2.23,0-3.34
		c0.15-0.03,0.3-0.07,0.45-0.1c0.53,0.81,1.07,1.61,1.58,2.44c0.97,1.58,1.53,1.57,2.47-0.04
		C975.72,534.28,976.3,533.46,976.84,532.63z M818.54,639.55c0-0.56,0-0.99,0-1.42c0-3.87,0.01-7.75-0.02-11.62
		c0-0.51-0.14-1.38-0.38-1.45c-0.55-0.15-1.29-0.04-1.8,0.23c-1.12,0.6-2.15,1.38-3.21,2.08c-0.77,0.51-0.87,1.15-0.36,2.07
		c1.19-0.7,2.34-1.36,3.59-2.1c0,4.17,0,8.13,0,12.21c-1.02,0-1.98-0.07-2.92,0.04c-0.31,0.04-0.58,0.53-0.86,0.81
		c0.29,0.28,0.58,0.79,0.88,0.8c2.51,0.06,5.03,0.02,7.55,0.05c0.66,0.01,1.07-0.27,0.92-0.89c-0.08-0.32-0.55-0.72-0.9-0.77
		C820.24,639.47,819.44,639.55,818.54,639.55z M932.69,532.85c-0.14,0.05-0.27,0.11-0.41,0.16c-0.33-0.31-0.69-0.6-0.99-0.94
		c-0.98-1.16-1.88-2.39-2.94-3.47c-0.34-0.35-1.09-0.5-1.59-0.4c-0.27,0.05-0.58,0.79-0.59,1.23c-0.05,2.32,0.01,4.63-0.02,6.95
		c-0.01,0.85,0.46,0.99,1.13,1.01c0.67,0.02,1.08-0.21,1.06-0.95c-0.01-0.56-0.01-1.12-0.01-1.68c0-0.79,0-1.58,0-2.38
		c0.14-0.03,0.29-0.06,0.43-0.09c0.26,0.28,0.54,0.54,0.78,0.83c1.02,1.23,1.96,2.53,3.07,3.68c0.35,0.37,1.13,0.48,1.69,0.43
		c0.21-0.02,0.5-0.81,0.51-1.26c0.06-2.04-0.02-4.08,0.08-6.11c0.05-0.97-0.03-1.76-1.15-1.8c-1.25-0.05-1.02,0.97-1.03,1.73
		C932.67,530.81,932.69,531.83,932.69,532.85z M1144.96,640.89c1.63,0.65,2.17,0.45,2.77-0.9c1.78-4.06,3.57-8.11,5.33-12.18
		c0.2-0.47,0.37-0.97,0.47-1.47c0.2-0.96-0.06-1.48-1.22-1.45c-2.68,0.07-5.36,0.03-8.04,0.02c-0.68,0-1.3-0.04-1.32,0.91
		c-0.02,0.98,0.56,1.04,1.33,1.03c2.27-0.03,4.54-0.01,7-0.01C1149.14,631.6,1147.07,636.21,1144.96,640.89z M870.96,626.84
		c-2.15,4.78-4.23,9.42-6.31,14.05c1.6,0.66,2.17,0.46,2.76-0.89c1.8-4.09,3.6-8.19,5.38-12.29c0.19-0.43,0.33-0.9,0.42-1.36
		c0.19-0.95-0.04-1.49-1.21-1.46c-2.68,0.07-5.36,0.04-8.04,0.01c-0.76-0.01-1.36,0.04-1.33,1.02c0.02,0.95,0.64,0.92,1.32,0.92
		C866.22,626.82,868.49,626.84,870.96,626.84z M853.44,532.73c0,1.16,0.03,2.31-0.01,3.47c-0.03,0.78,0.21,1.21,1.07,1.19
		c0.78-0.01,1.14-0.25,1.19-1.11c0.03-0.5,0.43-1.39,0.66-1.39c0.59,0.01,1.25,0.31,1.74,0.68c0.46,0.35,0.64,1.12,1.11,1.36
		c0.56,0.28,1.31,0.18,1.98,0.25c-0.17-0.44-0.24-0.96-0.53-1.31c-0.68-0.83-0.85-1.43,0.03-2.33c1.76-1.81,0.73-4.83-1.77-5.26
		c-1.4-0.24-2.86-0.17-4.29-0.26c-0.9-0.05-1.2,0.41-1.19,1.24C853.46,530.42,853.44,531.58,853.44,532.73z M1041.49,532.79
		C1041.49,532.79,1041.5,532.79,1041.49,532.79c0.01,1.12,0.04,2.24,0,3.35c-0.03,0.76,0.14,1.26,1.03,1.24
		c0.76-0.01,1.16-0.27,1.19-1.13c0.02-0.47,0.4-1.32,0.62-1.32c0.6-0.01,1.28,0.24,1.77,0.6c0.46,0.34,0.61,1.14,1.08,1.39
		c0.55,0.29,1.31,0.2,1.97,0.28c-0.15-0.44-0.22-0.93-0.47-1.3c-0.51-0.75-1.11-1.36-0.09-2.22c1.08-0.91,1.1-2.17,0.71-3.42
		c-0.37-1.18-1.26-1.87-2.45-2c-1.34-0.15-2.71-0.15-4.06-0.23c-0.92-0.05-1.31,0.38-1.29,1.29
		C1041.51,530.48,1041.49,531.64,1041.49,532.79z M990.85,532.67c0.01,0,0.02,0,0.03,0c0,1.2,0.01,2.39,0,3.59
		c-0.01,0.72,0.26,1.14,1.05,1.13c0.79-0.01,1.11-0.34,1.15-1.17c0.02-0.46,0.39-1.26,0.66-1.29c0.54-0.06,1.22,0.2,1.68,0.54
		c0.45,0.34,0.61,1.13,1.07,1.39c0.55,0.31,1.29,0.28,1.95,0.4c-0.13-0.46-0.14-1.03-0.42-1.37c-0.74-0.88-0.81-1.49,0.1-2.4
		c1.6-1.59,0.64-4.71-1.58-5.14c-1.51-0.3-3.09-0.24-4.64-0.3c-0.76-0.03-1.05,0.45-1.05,1.15
		C990.85,530.35,990.85,531.51,990.85,532.67z M959.48,527.92c-2.1,0.03-3.45,1.55-2.75,3.03c0.43,0.91,0.35,1.47-0.41,2.17
		c-1.35,1.24-1.17,2.82,0.39,3.81c1.35,0.86,2.86,0.75,4.27,0.21c0.68-0.26,1.18-0.56,1.85-0.05c0.18,0.14,0.73,0.04,0.92-0.14
		c0.2-0.2,0.23-0.63,0.23-0.96c0-0.68-0.05-1.36-0.14-2.03c-0.05-0.35-0.12-0.85-0.36-0.99c-0.24-0.15-0.86-0.08-1.03,0.12
		c-0.48,0.6-0.86,0.58-1.37,0.08c-0.55-0.54-0.36-0.93,0.12-1.4c0.67-0.66,1.24-1.39,0.73-2.43
		C961.4,528.25,960.42,528.01,959.48,527.92z M944.16,533.22c0.03,0,0.07,0,0.1,0c0,1,0.03,2-0.01,3c-0.03,0.81,0.3,1.18,1.12,1.18
		c1.72-0.01,3.44,0.04,5.15-0.04c0.38-0.02,0.74-0.48,1.11-0.74c-0.39-0.3-0.75-0.81-1.16-0.86c-1.02-0.13-2.09,0.05-3.1-0.1
		c-0.36-0.05-0.81-0.7-0.86-1.12c-0.03-0.29,0.49-0.86,0.85-0.95c0.64-0.16,1.35-0.03,2.03-0.05c0.61-0.02,1.43,0.16,1.44-0.81
		c0.01-1-0.83-0.89-1.5-0.9c-0.64-0.01-1.32,0.13-1.9-0.05c-0.4-0.13-0.81-0.66-0.92-1.08c-0.05-0.2,0.57-0.79,0.94-0.84
		c0.94-0.12,1.92,0.03,2.87-0.09c0.39-0.05,0.73-0.52,1.1-0.8c-0.36-0.31-0.7-0.85-1.07-0.87c-1.67-0.09-3.35-0.06-5.03-0.02
		c-0.88,0.02-1.22,0.53-1.17,1.44C944.21,530.74,944.16,531.98,944.16,533.22z M862.86,532.68c0,1.16,0.03,2.32-0.01,3.47
		c-0.03,0.87,0.35,1.24,1.2,1.24c1.68-0.01,3.35,0.04,5.03-0.04c0.36-0.02,0.7-0.51,1.05-0.78c-0.36-0.29-0.69-0.79-1.08-0.83
		c-0.98-0.12-1.99-0.03-2.99-0.05c-0.75-0.01-1.19-0.49-1.03-1.15c0.1-0.39,0.63-0.87,1.04-0.96c0.72-0.16,1.52,0.04,2.26-0.08
		c0.36-0.06,0.67-0.48,1-0.74c-0.32-0.32-0.6-0.83-0.97-0.91c-0.69-0.15-1.43-0.04-2.15-0.04c-0.76,0-1.33-0.36-1.18-1.13
		c0.07-0.35,0.71-0.77,1.14-0.84c0.86-0.13,1.75-0.04,2.63-0.04c0.59,0,1.27-0.09,1.13-0.84c-0.07-0.37-0.69-0.86-1.09-0.89
		c-1.55-0.1-3.11-0.04-4.67-0.05c-0.96,0-1.36,0.47-1.33,1.42C862.89,530.53,862.86,531.61,862.86,532.68z M816.98,597.82
		c-0.68,0.54-2.02-0.42-1.96,1.11c0.05,1.41,1.29,0.44,1.96,1.02c0,0.3,0,0.73,0,1.16c0.01,2-0.07,4.01,0.07,5.99
		c0.19,2.55,1.83,3.61,4.32,3.03c1.1-0.26,1.17-0.87,0.82-1.82c-0.42,0.09-0.8,0.2-1.18,0.25c-1.08,0.14-1.8-0.3-1.84-1.37
		c-0.08-2.46-0.03-4.92-0.03-7.48c0.72,0,1.35,0,1.99,0c1.33-0.01,1.48-0.24,0.98-1.71c-0.95,0-1.93,0-3.03,0
		c0-0.81-0.01-1.52,0-2.23c0.02-0.82-0.53-0.87-1.13-0.86c-0.59,0-1.01,0.16-0.98,0.89C817,596.51,816.98,597.22,816.98,597.82z
		 M1075.45,599.72c0.55,0,0.96,0.07,1.34-0.02c0.69-0.16,1.93,0.62,1.89-0.86c-0.04-1.44-1.26-0.62-1.94-0.79
		c-0.4-0.1-0.84-0.02-1.33-0.02c0-0.84-0.02-1.52,0.01-2.19c0.03-0.79-0.44-0.93-1.07-0.93c-0.65,0-1.09,0.17-1.04,0.95
		c0.04,0.7,0.01,1.41,0.01,1.97c-0.72,0.5-1.84-0.38-1.95,0.92c-0.14,1.61,1.32,0.62,1.95,1.18c0,0.49,0,1.04,0,1.59
		c0.02,1.88-0.07,3.77,0.08,5.63c0.2,2.49,1.81,3.55,4.25,2.97c1.13-0.26,1.28-0.61,0.78-1.82c-0.29,0.08-0.59,0.18-0.9,0.23
		c-1.25,0.22-2-0.26-2.04-1.53C1075.4,604.63,1075.45,602.24,1075.45,599.72z M1148.6,598.02c0-0.81-0.02-1.52,0-2.23
		c0.02-0.82-0.51-0.88-1.12-0.88c-0.59,0-1.02,0.15-0.99,0.88c0.03,0.71,0.01,1.42,0.01,2.02c-0.67,0.56-2.01-0.41-1.96,1.11
		c0.04,1.41,1.28,0.46,1.96,1.03c0,0.33,0,0.8,0,1.27c0.02,2-0.07,4.01,0.09,5.99c0.2,2.43,1.77,3.44,4.18,2.95
		c1.11-0.23,1.35-0.79,0.95-1.85c-0.41,0.09-0.79,0.2-1.17,0.25c-1.09,0.14-1.81-0.29-1.85-1.36c-0.09-2.46-0.03-4.93-0.03-7.36
		c0.15-0.06,0.22-0.11,0.3-0.11c0.56-0.01,1.12-0.02,1.68-0.02c1.34-0.01,1.48-0.23,1-1.7
		C1150.69,598.02,1149.71,598.02,1148.6,598.02z M1135.43,607.81c-0.22,0.69-0.38,1.47,0.63,1.88c1.73,0.71,3.49,0.83,5.24,0.08
		c1.3-0.56,1.95-1.62,2.01-3.01c0.06-1.39-0.64-2.36-1.86-2.95c-0.9-0.43-1.83-0.79-2.73-1.21c-0.78-0.37-1.33-0.93-1.11-1.89
		c0.21-0.95,0.97-1.27,1.81-1.21c0.74,0.05,1.46,0.29,2.18,0.48c0.32,0.09,0.61,0.27,0.94,0.42c0.26-1.58,0.09-2.06-1.25-2.3
		c-1.1-0.2-2.31-0.22-3.4,0.02c-1.27,0.28-2.12,1.21-2.28,2.62c-0.16,1.48,0.42,2.58,1.72,3.26c0.81,0.42,1.68,0.73,2.52,1.11
		c0.89,0.41,1.62,0.96,1.34,2.1c-0.27,1.1-1.17,1.43-2.12,1.33C1137.88,608.43,1136.7,608.08,1135.43,607.81z M1032.95,532.67
		c0,0-0.01,0-0.01,0c0,1.16,0.04,2.32-0.01,3.48c-0.04,0.88,0.34,1.25,1.19,1.24c1.68-0.01,3.36,0.05,5.03-0.04
		c0.36-0.02,0.69-0.53,1.04-0.81c-0.36-0.28-0.7-0.76-1.09-0.81c-0.94-0.12-1.91-0.04-2.87-0.04c-0.8,0-1.28-0.47-1.1-1.2
		c0.09-0.38,0.66-0.82,1.08-0.92c0.64-0.15,1.35-0.04,2.03-0.03c0.6,0.01,1.17-0.04,1.18-0.83c0.01-0.75-0.49-0.92-1.13-0.91
		c-0.64,0.01-1.28,0-1.92,0.01c-0.74,0.01-1.27-0.25-1.29-1.07c-0.02-0.85,0.6-0.93,1.23-0.94c0.88-0.01,1.77,0.07,2.63-0.04
		c0.4-0.05,0.75-0.49,1.12-0.75c-0.37-0.32-0.72-0.9-1.1-0.93c-1.59-0.11-3.19-0.05-4.79-0.04c-0.84,0-1.23,0.43-1.22,1.27
		C1032.96,530.43,1032.95,531.55,1032.95,532.67z M979.92,537c1.28,0.68,1.8,0.54,2.48-0.56c0.24-0.39,0.57-0.96,0.92-1
		c1.1-0.13,2.25-0.19,3.33,0.02c0.46,0.09,0.71,1.02,1.2,1.36c0.46,0.32,1.11,0.41,1.7,0.49c0.09,0.01,0.44-0.62,0.36-0.81
		c-1.05-2.41-2.2-4.77-3.24-7.18c-0.34-0.78-0.73-1.3-1.63-1.29c-0.88,0.01-1.32,0.48-1.66,1.27
		C982.27,531.86,981.1,534.38,979.92,537z M1022.82,531.49c0.02,0,0.04,0,0.07,0c0,0.84-0.06,1.68,0.01,2.52
		c0.19,2.16,1.76,3.46,4.11,3.49c2.44,0.03,3.97-1.12,4.18-3.33c0.15-1.59,0.09-3.19,0.12-4.79c0.01-0.7-0.13-1.33-1-1.33
		c-0.89-0.01-1.13,0.58-1.12,1.36c0.01,1.24,0.07,2.49-0.04,3.72c-0.06,0.68-0.24,1.52-0.7,1.95c-0.43,0.41-1.45,0.68-1.91,0.45
		c-0.64-0.33-1.31-1.14-1.41-1.84c-0.22-1.45-0.09-2.95-0.09-4.43c0-0.74-0.2-1.24-1.08-1.23c-0.82,0.01-1.16,0.4-1.14,1.19
		C1022.83,529.97,1022.82,530.73,1022.82,531.49z M895.11,537.6c0.81-0.26,1.48-0.21,1.01-1.22c-1.15-2.46-2.19-4.96-3.39-7.39
		c-0.22-0.45-0.97-0.89-1.46-0.89c-0.5,0.01-1.23,0.46-1.45,0.92c-1.14,2.33-2.15,4.72-3.19,7.09c-0.13,0.31-0.15,0.66-0.23,0.99
		c0.41,0.09,0.86,0.32,1.22,0.23c0.36-0.09,0.8-0.43,0.94-0.77c0.43-1.02,1.14-1.35,2.19-1.2c0.35,0.05,0.72,0.05,1.08,0
		c1-0.14,1.65,0.2,2.1,1.14C894.15,536.95,894.71,537.24,895.11,537.6z M905.44,531.46c-0.04,0-0.07-0.01-0.11-0.01
		c0-0.6-0.02-1.2,0-1.8c0.04-0.84-0.08-1.59-1.13-1.6c-1.07-0.01-1,0.82-1,1.55c-0.01,1.24,0.03,2.48-0.03,3.72
		c-0.07,1.42-0.93,2.36-2.06,2.38c-1.17,0.02-2.04-0.97-2.14-2.44c-0.03-0.4-0.02-0.8-0.02-1.2c0-1,0.08-2.01-0.04-2.99
		c-0.05-0.38-0.6-0.98-0.89-0.96c-0.43,0.03-1.17,0.52-1.17,0.82c0.01,2.03-0.02,4.09,0.34,6.07c0.32,1.77,1.85,2.54,3.99,2.51
		c2.03-0.03,3.39-0.89,3.82-2.62C905.27,533.77,905.3,532.6,905.44,531.46z M1062.2,537.38c1.43,0.02,1.65-0.32,1.24-1.24
		c-1.01-2.25-2.01-4.51-3.04-6.75c-0.32-0.69-0.66-1.34-1.61-1.39c-1.01-0.05-1.43,0.58-1.77,1.32c-1.03,2.29-2.02,4.59-3.05,6.88
		c-0.38,0.84-0.08,1.3,0.79,1.14c0.46-0.08,1.04-0.45,1.22-0.84c0.38-0.81,0.89-1.17,1.75-1.15c0.64,0.02,1.28,0.01,1.91,0
		c0.8-0.01,1.32,0.31,1.67,1.09C1061.53,536.9,1062.04,537.22,1062.2,537.38z M874.33,537.64c0.01-0.04,0.02-0.08,0.03-0.12
		c0.36-0.02,0.72-0.03,1.07-0.07c1.62-0.17,2.9-1.29,2.97-2.61c0.08-1.36-0.88-2.36-2.62-2.77c-0.62-0.15-1.26-0.29-1.81-0.58
		c-0.36-0.19-0.57-0.64-0.85-0.97c0.36-0.26,0.69-0.71,1.07-0.75c0.7-0.08,1.43,0.03,2.13,0.15c0.58,0.1,1.12,0.3,1.33-0.51
		c0.21-0.82-0.33-1.02-0.95-1.22c-1.39-0.46-2.76-0.41-4.1,0.14c-1.04,0.43-1.67,1.23-1.73,2.37c-0.06,1.14,0.53,1.91,1.56,2.3
		c0.81,0.31,1.71,0.43,2.49,0.79c0.47,0.22,0.8,0.75,1.19,1.14c-0.46,0.3-0.91,0.82-1.39,0.84c-0.76,0.03-1.53-0.35-2.31-0.41
		c-0.47-0.04-0.96,0.21-1.44,0.33c0.23,0.44,0.36,1.11,0.72,1.26C872.52,537.31,873.44,537.43,874.33,537.64z M1070.39,599.93
		c0.42-1.73-0.23-2.48-1.87-2.06c-0.65,0.17-1.23,0.68-1.8,1.09c-0.29,0.21-0.5,0.52-0.83,0.87c-0.04-0.29-0.07-0.41-0.06-0.53
		c0.02-0.67,0.07-1.28-0.92-1.28c-1.08-0.01-0.97,0.67-0.96,1.37c0.01,3.11,0.01,6.22-0.01,9.33c0,0.74-0.01,1.33,1.01,1.34
		c0.96,0,1.11-0.47,1.09-1.28c-0.04-1.67-0.01-3.35-0.01-5.03C1066.02,600.85,1067.49,599.54,1070.39,599.93z M882.58,528.04
		C882.58,528.04,882.58,528.03,882.58,528.04c-0.76-0.01-1.52-0.04-2.27,0c-0.74,0.04-1.84-0.33-1.88,0.87
		c-0.04,1.25,1.09,0.9,1.82,0.89c0.96-0.02,1.25,0.39,1.22,1.3c-0.05,1.71,0,3.43-0.04,5.15c-0.02,0.81,0.28,1.16,1.11,1.16
		c0.82,0,1.15-0.33,1.13-1.15c-0.04-1.47-0.01-2.95-0.02-4.43c0-1.89,0-1.85,1.92-2.04c0.39-0.04,0.74-0.5,1.1-0.77
		c-0.37-0.32-0.7-0.87-1.1-0.93C884.59,527.95,883.58,528.04,882.58,528.04z M938.56,533.5c-0.01,0-0.01,0-0.02,0
		c0,0.88,0.04,1.76-0.01,2.64c-0.04,0.78,0.18,1.23,1.03,1.25c0.92,0.02,1.15-0.44,1.12-1.28c-0.05-1.68-0.01-3.36-0.05-5.03
		c-0.02-0.87,0.34-1.26,1.19-1.25c0.28,0,0.6,0.08,0.83-0.02c0.36-0.17,0.65-0.47,0.98-0.71c-0.28-0.34-0.54-0.96-0.83-0.98
		c-2.15-0.08-4.31-0.07-6.47,0.01c-0.28,0.01-0.74,0.59-0.74,0.89c0,0.27,0.52,0.59,0.86,0.77c0.22,0.12,0.55,0.04,0.83,0.03
		c0.9-0.03,1.33,0.34,1.28,1.29C938.53,531.9,938.56,532.7,938.56,533.5z M858.74,603.97c0,1.68,0.04,3.36-0.01,5.03
		c-0.02,0.83,0.36,1.04,1.08,1.03c0.67-0.01,1.03-0.21,1.03-0.97c-0.02-3.36-0.02-6.71,0-10.07c0-0.75-0.36-0.97-1.03-0.97
		c-0.72-0.01-1.1,0.21-1.08,1.03C858.77,600.69,858.74,602.33,858.74,603.97z M1103.78,603.94c0,1.72,0.03,3.44-0.01,5.15
		c-0.02,0.8,0.41,0.93,1.05,0.93c0.65,0,1.06-0.16,1.06-0.94c-0.02-3.36-0.03-6.71,0-10.07c0.01-0.84-0.42-1.01-1.12-1
		c-0.69,0.01-1,0.26-0.98,1C1103.81,600.67,1103.78,602.31,1103.78,603.94z M1050.71,532.73
		C1050.72,532.73,1050.72,532.73,1050.71,532.73c0.01,1.27,0,2.55,0.01,3.82c0.01,0.79,0.59,0.95,1.16,0.79
		c0.39-0.11,0.97-0.54,0.98-0.84c0.09-2.43,0.05-4.86,0.07-7.29c0.01-0.79-0.38-1.19-1.15-1.21c-0.86-0.03-1.07,0.53-1.07,1.25
		C1050.71,530.42,1050.71,531.57,1050.71,532.73z M1000.08,532.75c0,1.2,0.02,2.39-0.01,3.59c-0.01,0.77,0.34,1.07,1.09,1.06
		c0.71-0.01,1.13-0.21,1.12-1.03c-0.02-2.39-0.01-4.78,0.01-7.17c0-0.8-0.37-1.16-1.16-1.17c-0.79-0.01-1.05,0.44-1.04,1.14
		C1000.08,530.36,1000.07,531.55,1000.08,532.75z M861.03,594.59c0.03-0.79-0.45-1.13-1.26-1.12c-0.8,0-1.28,0.34-1.29,1.2
		c0,0.86,0.47,1.2,1.28,1.2C860.57,595.87,861.04,595.53,861.03,594.59z M1106.07,594.68c0.04-0.8-0.38-1.2-1.21-1.21
		c-0.78,0-1.31,0.28-1.33,1.15c-0.02,0.84,0.4,1.24,1.23,1.25C1105.54,595.88,1106.06,595.6,1106.07,594.68z M1051.38,527.29
		c1.17-0.11,2.29-0.93,2.45-1.8C1052.32,525.08,1051.31,525.83,1051.38,527.29z"/>
	<path d="M945.67,473.36c-3.31,0.31-8.08-0.55-12.75-1.84c-3-0.82-5.82-2.17-8.28-4.2c-2.84-2.34-4.06-5.43-4.57-8.95
		c-0.26-1.81-0.59-3.63-1.09-5.4c-1.44-5.1,0.02-9.47,3.24-13.39c2.63-3.21,5.82-5.76,9.34-7.98c5.27-3.32,10.93-5.72,16.82-7.69
		c10.67-3.57,21.61-5,32.83-4.35c4.82,0.28,9.51,1.28,13.91,3.31c3.22,1.49,5.95,3.59,7.59,6.86c0.12,0.25,0.28,0.5,0.33,0.77
		c0.77,3.83,1.62,7.65,2.27,11.51c0.6,3.52-0.71,6.59-2.68,9.43c-2.77,3.98-6.47,6.96-10.51,9.51c-5.87,3.71-12.21,6.42-18.86,8.41
		C962.25,472.65,957.85,472.6,945.67,473.36z M948.85,459.81c5.92,0.11,13.79-1.26,21.48-3.54c6.91-2.05,13.54-4.81,19.54-8.91
		c3.23-2.21,6.14-4.73,8.3-8.03c0.76-1.15,0.66-1.87-0.56-2.45c-2.25-1.09-4.5-2.42-6.9-2.93c-3.81-0.81-7.75-1.44-11.63-1.44
		c-11.37,0.01-22.36,2.21-32.9,6.57c-5.19,2.15-10.11,4.75-14.51,8.26c-2.23,1.78-4.22,3.78-5.74,6.23
		c-0.53,0.85-0.39,1.44,0.45,1.85c1.75,0.87,3.46,1.87,5.29,2.49C936.54,459.53,941.61,459.86,948.85,459.81z M924.8,459.24
		c-0.14,0.05-0.27,0.1-0.41,0.15c0.17,0.74,0.22,1.53,0.54,2.2c0.89,1.81,2.39,3.08,4.12,4.07c3.86,2.22,8.09,3.17,12.47,3.54
		c7.78,0.66,15.52,0.18,23.12-1.61c4.31-1.02,8.63-2.15,12.74-3.74c4.22-1.64,8.33-3.69,12.25-5.97c4.44-2.58,8.45-5.79,10.91-10.51
		c0.82-1.57,1.35-3.19,0.74-5.37c-0.82,0.97-1.43,1.71-2.07,2.43c-3.81,4.27-8.5,7.35-13.54,9.95c-4.67,2.4-9.55,4.26-14.58,5.72
		c-5.62,1.64-11.31,2.87-17.18,3.1c-2.72,0.11-5.43,0.33-8.14,0.45c-5.45,0.25-10.77-0.49-15.92-2.26
		C928.12,460.78,926.48,459.96,924.8,459.24z M977.95,428.67c5.53-0.18,10.86,0.51,16.05,2.15c1.5,0.48,2.9,1.3,4.35,1.94
		c0.34,0.15,0.72,0.18,1.08,0.26c0.01-0.37,0.08-0.75,0-1.1c-0.08-0.34-0.29-0.65-0.47-0.96c-1.4-2.4-3.66-3.75-6.09-4.83
		c-4.11-1.82-8.5-2.56-12.93-2.8c-11.28-0.6-22.19,1.34-32.81,5.12c-5.56,1.98-10.83,4.47-15.66,7.89
		c-2.96,2.09-5.65,4.45-7.57,7.58c-1.02,1.66-1.74,3.43-1.62,5.42c0.02,0.41,0.25,0.8,0.39,1.2c0.35-0.22,0.76-0.37,1.03-0.66
		c0.76-0.82,1.4-1.75,2.18-2.55c4.4-4.54,9.75-7.71,15.4-10.41c5.6-2.68,11.49-4.62,17.51-6
		C965.11,429.49,971.52,428.52,977.95,428.67z"/>
	<path d="M949.67,496.57c0.28-0.3,0.6-0.59,0.85-0.92c3.49-4.68,7.52-8.82,12.19-12.31c2.04-1.53,4.15-3.02,6.74-3.5
		c2.61-0.49,4.22,0.74,4.08,3.41c-0.15,2.78-0.63,5.55-1.06,8.31c-0.85,5.52-1.79,11.03-2.63,16.55c-0.13,0.89-0.42,2.24,0.71,2.51
		c0.68,0.17,1.63-0.66,2.42-1.11c0.37-0.21,0.64-0.6,0.93-0.93c0.53-0.63,1.02-0.75,1.71-0.14c0.67,0.6,0.63,1.11,0.11,1.74
		c-2.83,3.4-5.85,6.6-9.82,8.67c-1.16,0.61-2.54,0.93-3.86,1.09c-1.36,0.16-2.51-0.74-2.84-2.08c-0.26-1.03-0.49-2.15-0.36-3.18
		c0.45-3.77,1.05-7.51,1.62-11.27c0.62-4.1,1.28-8.2,1.9-12.31c0.08-0.51,0.05-1.05-0.04-1.55c-0.17-0.95-0.93-1.34-1.79-0.9
		c-0.67,0.35-1.32,0.77-1.87,1.28c-4.68,4.35-8.3,9.42-10.04,15.62c-0.95,3.37-1.45,6.86-2.23,10.28c-0.11,0.47-0.59,1.04-1.03,1.2
		c-2.69,1-5.41,1.92-8.14,2.81c-0.45,0.15-0.98,0.04-1.48,0.05c0-0.42-0.05-0.85,0.02-1.26c1.21-6.84,2.48-13.68,3.63-20.53
		c0.38-2.24,0.49-4.53,0.68-6.8c0.05-0.55,0.03-1.13-0.09-1.67c-0.27-1.14-0.95-1.49-1.92-0.86c-1.13,0.73-2.16,1.63-3.19,2.5
		c-0.51,0.43-0.91,0.74-1.52,0.12c-0.56-0.58-0.77-1.07-0.14-1.74c3.09-3.26,6.3-6.39,10.27-8.56c1.13-0.62,2.41-1.07,3.68-1.32
		c2.05-0.41,3.59,0.8,3.7,2.9c0.09,1.59,0,3.2-0.2,4.78c-0.34,2.57-0.84,5.13-1.26,7.69c-0.07,0.41-0.08,0.83-0.11,1.24
		C949.42,496.46,949.55,496.52,949.67,496.57z"/>
	<path d="M915.64,504.7c-0.39,0.48-0.81,0.94-1.17,1.44c-3.35,4.63-7.16,8.81-11.99,11.94c-1.68,1.09-3.46,2.03-5.57,1.92
		c-1.71-0.09-3.12-1.12-3.42-2.81c-0.28-1.56-0.47-3.17-0.41-4.75c0.21-5.42,0.98-10.72,3.31-15.71c2.42-5.2,6.19-9.15,10.98-12.2
		c4.93-3.15,10.37-4.46,16.16-4.53c2-0.02,4-0.03,6-0.09c0.96-0.03,1.2,0.37,0.98,1.25c-0.88,3.52-1.92,7.02-2.58,10.58
		c-0.99,5.42-1.7,10.88-2.53,16.33c-0.04,0.23-0.07,0.5,0,0.71c0.22,0.65,0.34,1.49,0.8,1.84c0.28,0.21,1.22-0.24,1.72-0.6
		c0.64-0.45,1.17-1.08,1.71-1.68c0.59-0.66,1.07-0.43,1.64,0.04c0.55,0.45,0.76,0.84,0.24,1.49c-2.87,3.57-5.98,6.89-10.07,9.1
		c-0.86,0.47-1.85,0.8-2.82,0.96c-2.09,0.34-3.81-0.89-3.93-3.01c-0.11-2.06,0.05-4.14,0.27-6.2c0.19-1.74,0.64-3.45,0.96-5.18
		c0.04-0.22,0.01-0.46,0.01-0.69C915.83,504.8,915.74,504.75,915.64,504.7z M903.08,508.29c0.1,0.02,0.2,0.04,0.3,0.06
		c0,0.52-0.03,1.04,0.01,1.56c0.12,1.8,1.25,2.63,2.83,1.81c1.17-0.6,2.25-1.53,3.12-2.53c3.01-3.42,5.21-7.37,6.78-11.61
		c1.17-3.17,1.99-6.46,2.92-9.72c0.37-1.29,0.09-1.61-1.28-1.74c-1.27-0.12-2.54-0.26-3.82-0.37c-3.12-0.27-5.04,0.7-6.22,3.56
		c-0.97,2.35-1.78,4.79-2.36,7.26C904.48,500.44,903.83,504.37,903.08,508.29z"/>
	<path d="M864.01,520.28c-3.56-0.09-6.73-0.13-9.58-1.79c-1.39-0.81-3.2-2.77-2.58-4.26c0.48-1.14,1.14-2.3,2.01-3.16
		c1.4-1.4,3-2.62,4.6-3.8c0.98-0.72,1.61-0.28,1.79,1.04c0.9,6.63,6.7,8.87,11.97,7.58c6.41-1.57,8.59-9.05,4.21-14.49
		c-2.09-2.59-4.69-4.76-7.15-7.03c-1.85-1.71-3.88-3.21-5.74-4.9c-5.02-4.56-4.95-11.35-1.48-16.34c2.67-3.84,6.44-6.25,10.88-7.63
		c4.6-1.42,9.26-1.71,13.97-0.65c1.07,0.24,2.16,0.67,3.07,1.26c2.32,1.51,2.78,3.6,1.02,5.69c-1.36,1.62-3.15,2.91-4.84,4.22
		c-0.8,0.62-1.49,0.1-1.7-1.03c-0.53-2.75-1.85-5.01-4.55-6.03c-3.44-1.3-7.86-0.99-10.09,2.52c-1.66,2.61-1.59,6.34,0.74,8.8
		c2.21,2.34,4.76,4.37,7.26,6.4c2.96,2.4,5.85,4.84,8.06,7.99c4.18,5.96,2.58,13.03-1.92,17.76c-4.41,4.63-9.96,6.94-16.25,7.58
		C866.34,520.17,864.98,520.22,864.01,520.28z"/>
	<path d="M1002.74,508.27c0.16-6.98,2.1-13.35,6.45-18.84c4.41-5.56,10.15-8.98,17.24-9.83c3.41-0.41,6.82-0.03,9.25,2.79
		c0.98,1.13,1.78,2.63,2.1,4.08c1.15,5.08,0.51,10.1-1.19,14.98c-2.22,6.38-6.2,11.41-11.87,15.04c-4.2,2.69-8.84,3.85-13.83,3.42
		c-3.88-0.33-6.92-3.11-7.65-7C1002.97,511.39,1002.91,509.82,1002.74,508.27z M1013.86,505.23c0,1.44-0.07,2.88,0.03,4.31
		c0.06,0.86,0.34,1.72,0.58,2.57c0.98,3.49,4.85,4.55,7.45,2.04c1.6-1.54,2.42-3.53,3.13-5.58c1.19-3.47,1.59-7.08,1.87-10.7
		c0.25-3.26,0.51-6.54-0.33-9.77c-0.5-1.93-1.43-3.49-3.54-3.94c-1.93-0.41-3.53,0.37-4.62,1.87c-0.99,1.37-1.85,2.9-2.44,4.48
		C1014.25,495.24,1013.89,500.22,1013.86,505.23z"/>
	<path d="M998.07,487.53c-3.37,0.05-3.43,0.04-3.82,2.52c-0.81,5.21-1.57,10.43-2.3,15.65c-0.17,1.22-0.21,2.47-0.17,3.71
		c0.01,0.49,0.28,1.2,0.64,1.38c0.37,0.18,1.13-0.01,1.5-0.31c0.96-0.77,1.82-1.67,2.68-2.55c0.44-0.45,0.8-0.95,1.47-0.31
		c0.61,0.58,1.19,1.14,0.44,2.01c-3.09,3.58-6.28,7.06-10.58,9.25c-0.98,0.5-2.07,0.9-3.16,1.06c-2.53,0.36-4.29-1.11-4.17-3.68
		c0.15-3.11,0.5-6.21,0.96-9.29c0.82-5.45,1.79-10.88,2.71-16.31c0.12-0.71,0.3-1.41,0.45-2.11c0.24-1.18-0.04-1.53-1.2-1.34
		c-1.53,0.26-3.05,0.61-4.57,0.93c-0.35,0.07-0.71,0.28-1.04,0.23c-0.38-0.05-0.73-0.32-1.09-0.49c0.18-0.36,0.26-0.88,0.55-1.04
		c5.49-3.14,10.24-7.22,14.82-11.53c1.57-1.48,3.04-3.06,4.62-4.53c0.36-0.33,0.99-0.38,1.5-0.55c0.05,0.55,0.27,1.16,0.12,1.65
		c-0.76,2.56-1.63,5.08-2.44,7.62c-0.18,0.57-0.34,1.17-0.34,1.76c0,0.33,0.36,0.93,0.58,0.94c2.94,0.12,5.89,0.19,8.83,0.18
		c0.59,0,1.17-0.47,1.77-0.63c0.37-0.1,0.79-0.03,1.19-0.04c-0.11,0.36-0.11,0.79-0.33,1.05
		C1005.09,485.94,1001.82,487.75,998.07,487.53z"/>
	<path d="M1044.37,520.18c-1.25-0.22-2.51-0.4-3.74-0.67c-2.93-0.65-4.85-4.01-2.41-7.41c0.65-0.9,1.44-1.71,2.19-2.54
		c0.55-0.61,0.99-0.63,1.48,0.17c1.13,1.86,2.49,3.58,4.46,4.59c1.14,0.58,2.45,0.93,3.73,1.1c1.54,0.21,2.83-0.51,3.64-1.85
		c0.88-1.47,0.64-3.01-0.34-4.28c-1.19-1.54-2.66-2.87-3.9-4.38c-1.67-2.03-3.46-4-4.79-6.24c-2.82-4.72-1.31-9.79,2.02-13.19
		c4.69-4.79,10.41-6.67,17.04-5.55c3.69,0.62,5.07,4.53,2.7,7.42c-0.15,0.18-0.33,0.35-0.5,0.52c-1.95,1.91-2.21,1.89-3.97-0.1
		c-1.53-1.73-3.26-3.18-5.62-3.65c-2.51-0.51-5.13,1.36-4.82,3.59c0.12,0.86,0.58,1.77,1.15,2.44c1.68,1.98,3.47,3.86,5.25,5.75
		c3.08,3.27,4.93,6.96,4.18,11.6c-0.54,3.36-2.5,5.83-5.02,7.91C1053.42,518.44,1049.16,519.93,1044.37,520.18z"/>
	<path d="M1011.34,533.93c0.04-0.46,0.09-0.88,0.1-1.3c0.04-2.41,1.59-4.13,4.17-4.65c2.19-0.44,4.72,0.77,5.55,2.65
		c0.96,2.18,0.32,4.5-1.61,5.97c-0.27,0.2-0.4,0.59-0.59,0.89c0.38,0.11,0.83,0.4,1.13,0.28c0.71-0.27,1.33-0.46,1.71,0.39
		c0.21,0.47-0.76,1.36-1.55,1.5c-1.39,0.25-2.43-0.42-3.48-1.19c-0.66-0.48-1.45-0.77-2.13-1.23c-0.84-0.58-1.63-1.23-2.41-1.89
		c-0.28-0.23-0.48-0.56-0.82-0.97c-0.39,0.78-0.6,1.44-1.01,1.94c-1.12,1.39-5.18,1.63-6.46,0.39c-0.23-0.22-0.33-0.85-0.18-1.1
		c0.16-0.26,0.72-0.42,1.07-0.37c0.82,0.11,1.61,0.53,2.41,0.52c0.52-0.01,1.02-0.55,1.54-0.85c-0.44-0.4-0.81-0.93-1.32-1.17
		c-0.74-0.36-1.59-0.49-2.38-0.76c-1.04-0.36-1.5-1.18-1.51-2.22c-0.01-1.04,0.48-1.88,1.42-2.34c1.65-0.8,3.35-0.69,5.01-0.04
		c0.24,0.09,0.51,0.77,0.41,0.9c-0.26,0.32-0.71,0.65-1.09,0.67c-0.7,0.03-1.43-0.29-2.12-0.23c-0.47,0.04-0.91,0.47-1.37,0.73
		c0.34,0.38,0.6,0.89,1.02,1.09c0.67,0.32,1.5,0.33,2.16,0.67C1009.79,532.64,1010.45,533.27,1011.34,533.93z M1013.65,532.7
		c0,1.7,1.26,3.03,2.87,3.02c1.55-0.01,2.94-1.46,2.92-3.04c-0.02-1.62-1.27-2.87-2.88-2.89
		C1014.81,529.77,1013.65,530.92,1013.65,532.7z"/>
	<path d="M907.11,532.79c0-1.16,0.02-2.32-0.01-3.48c-0.02-0.89,0.32-1.35,1.27-1.29c1.35,0.09,2.71,0.08,4.06,0.22
		c1.38,0.14,2.21,1.01,2.64,2.29c0.4,1.19,0,2.2-0.77,3.1c-0.78,0.92-0.62,2.17,0.48,2.73c0.21,0.1,0.91-0.32,1.07-0.65
		c0.92-1.9,1.74-3.85,2.59-5.78c0.13-0.29,0.19-0.67,0.41-0.86c0.48-0.4,1.04-0.99,1.56-0.98c0.52,0.02,1.25,0.55,1.5,1.06
		c0.94,1.84,1.72,3.77,2.56,5.66c0.16,0.36,0.39,0.72,0.46,1.1c0.08,0.44,0.16,1.25,0,1.31c-0.66,0.27-1.38,0.32-1.88-0.46
		c-0.32-0.5-0.74-1.25-1.19-1.3c-1.16-0.13-2.36,0.03-3.54,0.15c-0.19,0.02-0.45,0.37-0.51,0.61c-0.26,1.16-1.11,1.21-2.04,1.14
		c-0.36-0.03-0.73-0.11-1.07-0.04c-1.19,0.25-2.01-0.17-2.56-1.25c-0.16-0.32-0.37-0.7-0.66-0.83c-0.52-0.23-1.13-0.42-1.66-0.34
		c-0.23,0.03-0.52,0.77-0.51,1.17c0.03,0.93-0.29,1.31-1.24,1.3c-1.03-0.01-1.02-0.65-1-1.37
		C907.13,534.95,907.11,533.87,907.11,532.79C907.11,532.79,907.11,532.79,907.11,532.79z M909.31,531.22c0,1.63,0.13,1.8,1.33,1.79
		c1.52-0.01,2.38-0.58,2.38-1.6c0-0.96-0.96-1.55-2.38-1.61C909.45,529.75,909.17,530.33,909.31,531.22z M920.55,530.72
		c-0.14,0.01-0.27,0.02-0.41,0.03c-0.3,0.68-0.64,1.34-0.88,2.03c-0.07,0.22,0.13,0.76,0.26,0.78c0.57,0.08,1.17,0.05,1.74-0.03
		c0.11-0.02,0.28-0.5,0.22-0.7C921.22,532.11,920.87,531.42,920.55,530.72z"/>
	<path d="M839.27,601.38c2.53,1.44,3.33,3.07,2.7,5.34c-0.48,1.73-1.72,2.78-3.38,3.01c-2.08,0.28-4.21,0.26-6.32,0.25
		c-0.3,0-0.85-0.65-0.85-1.01c-0.06-4.75-0.06-9.5,0-14.25c0-0.34,0.58-0.96,0.9-0.96c1.79-0.04,3.59-0.01,5.37,0.15
		c1.59,0.15,2.81,1.01,3.22,2.61c0.44,1.72,0.23,3.34-1.31,4.53C839.49,601.15,839.39,601.26,839.27,601.38z M833.62,602.62
		c0,1.98,0,3.83,0,5.68c0.25,0.02,0.4,0.04,0.56,0.04c0.92,0,1.83,0.02,2.75-0.01c1.82-0.05,2.97-1.11,3-2.73
		c0.03-1.64-1.04-2.83-2.79-2.97C835.99,602.55,834.83,602.62,833.62,602.62z M833.59,600.96c1.72-0.3,3.62,0.62,4.89-1.22
		c0.62-0.9,0.6-2.65-0.08-3.4c-1.38-1.53-3.16-0.75-4.81-0.96C833.59,597.32,833.59,599.06,833.59,600.96z"/>
	<path d="M1097.78,602.84c-1.17,0-2.16-0.02-3.16,0.01c-0.6,0.02-1.01-0.08-1.02-0.82c-0.01-0.68,0.29-0.9,0.95-0.89
		c1.44,0.03,2.88,0.02,4.32,0.01c0.75-0.01,1.09,0.34,1.08,1.1c-0.02,1.92,0.05,3.84-0.04,5.75c-0.02,0.45-0.41,1.09-0.8,1.27
		c-2.49,1.13-5.08,1.38-7.69,0.42c-2.8-1.03-4.14-3.22-4.62-6.06c-0.76-4.54,1.47-8.59,5.41-9.76c2.33-0.69,4.58-0.45,6.75,0.61
		c1,0.49,1.24,1.24,0.78,2.36c-0.4-0.18-0.73-0.4-1.09-0.49c-1.42-0.34-2.84-0.84-4.27-0.9c-1.98-0.09-3.53,0.94-4.49,2.69
		c-1.2,2.2-1.29,4.51-0.35,6.82c1.2,2.94,4.74,4.3,7.61,2.93c0.28-0.13,0.59-0.55,0.6-0.85
		C1097.81,605.69,1097.78,604.34,1097.78,602.84z"/>
	<path d="M1163.41,632.68c0.78,0.57,1.63,1.05,2.31,1.7c2.02,1.94,1.48,5.23-1.08,6.4c-2.13,0.97-4.36,0.99-6.51,0.06
		c-2.49-1.07-3-4.22-1.02-6.19c0.67-0.67,1.51-1.16,2.34-1.77c-0.43-0.31-0.88-0.61-1.31-0.95c-1.36-1.06-1.9-2.46-1.52-4.13
		c0.37-1.61,1.5-2.58,3.06-2.85c1.19-0.2,2.48-0.25,3.66-0.02c2.99,0.58,4.01,3.8,1.99,6.09
		C1164.79,631.64,1164.08,632.12,1163.41,632.68z M1161.4,639.78c2.19,0.01,3.36-0.87,3.35-2.52c-0.01-1.34-2.2-3.52-3.49-3.47
		c-1.22,0.05-3.13,2.1-3.16,3.39C1158.04,638.82,1159.26,639.77,1161.4,639.78z M1158.65,628.66c0.01,1.2,1.75,3.11,2.87,3.16
		c1,0.04,2.69-1.94,2.7-3.15c0.01-1.47-1.04-2.32-2.85-2.31C1159.62,626.37,1158.64,627.2,1158.65,628.66z"/>
	<path d="M843.23,632.93c0.18-1.2,0.28-2.72,0.66-4.18c0.72-2.77,2.69-4.17,5.45-4.08c2.71,0.09,4.25,1.43,4.89,4.36
		c0.59,2.69,0.59,5.4-0.07,8.08c-0.86,3.51-3.82,5.16-7.26,4.07c-2.15-0.68-2.93-2.47-3.29-4.47
		C843.41,635.57,843.38,634.41,843.23,632.93z M845.37,633.03c0.22,1.5,0.33,3.06,0.71,4.55c0.44,1.7,1.65,2.41,3.34,2.18
		c1.47-0.2,2.2-1.21,2.54-2.52c0.72-2.79,0.65-5.61,0-8.4c-0.39-1.67-1.33-2.44-2.78-2.48c-1.6-0.05-2.69,0.67-3.13,2.37
		C845.69,630.1,845.59,631.54,845.37,633.03z"/>
	<path d="M1123.55,632.89c0.17-1.16,0.27-2.65,0.63-4.06c0.71-2.8,2.63-4.21,5.39-4.15c2.75,0.05,4.33,1.41,4.98,4.4
		c0.57,2.65,0.57,5.32-0.06,7.96c-0.85,3.55-3.72,5.21-7.2,4.17c-2.22-0.66-3.01-2.48-3.36-4.54
		C1123.73,635.53,1123.7,634.37,1123.55,632.89z M1132.91,633.39c-0.22-1.62-0.32-3.06-0.62-4.45c-0.38-1.77-1.31-2.54-2.81-2.58
		c-1.59-0.04-2.67,0.68-3.13,2.39c-0.78,2.94-0.76,5.92,0.04,8.86c0.41,1.5,1.37,2.16,2.78,2.18c1.47,0.02,2.51-0.6,2.94-2.12
		C1132.52,636.22,1132.68,634.71,1132.91,633.39z"/>
	<path d="M753.65,639.2c2.2,0.59,4.34,1.21,6.2-0.51c1.29-1.19,1.63-2.77,1.69-4.55c-0.83,0.25-1.55,0.53-2.31,0.67
		c-2.05,0.38-4.13,0.34-5.4-1.57c-1.32-1.98-1.2-4.22-0.02-6.25c1.16-2,3.16-2.45,5.3-2.27c2.05,0.17,3.42,1.33,3.99,3.28
		c0.91,3.1,0.92,6.25-0.19,9.3c-1.27,3.5-5.2,5.13-8.67,3.77C753.32,640.71,753.35,640.1,753.65,639.2z M761.51,631.2
		c-0.07-3.25-1.2-4.88-3.37-4.84c-1.85,0.04-3.05,1.52-3.01,3.71c0.05,2.24,1.06,3.27,3.21,3.24
		C760.5,633.27,761.54,632.58,761.51,631.2z"/>
	<path d="M1033.95,639.21c2.28,0.59,4.51,1.25,6.38-0.67c1.17-1.2,1.53-2.72,1.52-4.48c-1.82,0.82-3.59,1.2-5.46,0.7
		c-1.42-0.38-2.45-1.21-2.8-2.66c-0.51-2.1-0.48-4.18,1.11-5.85c1.52-1.58,3.47-1.84,5.54-1.38c1.59,0.35,2.62,1.38,3.09,2.88
		c1.07,3.38,1.07,6.78-0.31,10.07c-1.62,3.87-5.87,4.12-8.53,3.21C1033.59,640.73,1033.71,640.06,1033.95,639.21z M1041.83,631.21
		c-0.06-3.25-1.2-4.89-3.36-4.85c-1.86,0.03-3.06,1.5-3.02,3.7c0.04,2.24,1.06,3.28,3.2,3.25
		C1040.81,633.28,1041.86,632.59,1041.83,631.21z"/>
	<path d="M1075.52,626.91c-2.09-0.53-4.21-1.2-5.99,0.58c-1.22,1.23-1.57,2.81-1.56,4.57c0.85-0.26,1.62-0.55,2.42-0.72
		c4.16-0.85,6.63,1.52,6,5.7c-0.39,2.6-2.36,4.3-5.16,4.43c-2.7,0.13-4.48-1.17-5.07-3.9c-0.58-2.68-0.61-5.4,0.13-8.06
		c1.08-3.86,4.6-5.73,8.42-4.55C1075.65,625.25,1075.85,625.83,1075.52,626.91z M1074.48,636.15c-0.19-1.94-0.84-3.16-2.24-3.2
		c-1.26-0.04-2.54,0.39-3.79,0.68c-0.21,0.05-0.49,0.48-0.47,0.71c0.12,1.22,0.24,2.45,0.53,3.63c0.26,1.03,1.03,1.68,2.15,1.8
		c1.19,0.13,2.28-0.15,2.91-1.21C1074.01,637.83,1074.19,636.96,1074.48,636.15z"/>
	<path d="M808.4,626.91c-2.11-0.54-4.23-1.2-6,0.59c-1.22,1.23-1.56,2.81-1.54,4.55c0.86-0.26,1.64-0.56,2.44-0.72
		c4.15-0.84,6.63,1.55,5.98,5.73c-0.4,2.6-2.38,4.29-5.18,4.41c-2.7,0.12-4.48-1.2-5.06-3.92c-0.58-2.72-0.61-5.48,0.17-8.18
		c1.09-3.76,4.66-5.59,8.4-4.41C808.56,625.26,808.73,625.86,808.4,626.91z M800.75,635.16c0.2,0.93,0.35,1.87,0.63,2.77
		c0.31,1.03,1.02,1.7,2.13,1.83c1.24,0.15,2.29-0.19,3.02-1.25c0.83-1.2,0.88-3.58,0.11-4.66c-0.71-1-2.19-1.3-3.95-0.79
		c-0.19,0.05-0.38,0.12-0.57,0.18C801.19,633.52,800.53,634,800.75,635.16z"/>
	<path d="M787.65,632.06c0.89-0.27,1.64-0.57,2.41-0.72c4.17-0.85,6.64,1.48,6.03,5.68c-0.38,2.61-2.34,4.31-5.14,4.45
		c-2.7,0.14-4.49-1.16-5.09-3.88c-0.58-2.68-0.62-5.39,0.12-8.06c1.08-3.87,4.57-5.74,8.4-4.57c0.98,0.3,1.11,0.59,0.78,1.93
		c-2.07-0.51-4.23-1.2-6.01,0.67C787.98,628.78,787.65,630.32,787.65,632.06z M787.55,635.13c0.2,0.93,0.34,1.87,0.61,2.78
		c0.34,1.12,1.12,1.8,2.35,1.88c1.32,0.09,2.38-0.36,2.97-1.56c0.72-1.47,0.86-3.07-0.12-4.43c-0.99-1.37-2.52-1.06-3.95-0.72
		c-0.19,0.05-0.37,0.14-0.56,0.19C787.94,633.55,787.37,634.05,787.55,635.13z"/>
	<path d="M1088.67,626.89c-2.03-0.49-4.15-1.19-5.93,0.59c-1.23,1.23-1.57,2.81-1.57,4.55c0.96-0.27,1.85-0.59,2.76-0.76
		c2.86-0.54,5.07,0.72,5.61,3.14c0.72,3.19-0.87,6.15-3.68,6.84c-3.61,0.9-6.04-0.67-6.63-4.37c-0.43-2.66-0.47-5.33,0.44-7.92
		c1.23-3.5,4.84-5.19,8.33-3.95C1088.92,625.33,1089.01,625.57,1088.67,626.89z M1081.07,635.15c0.2,0.93,0.35,1.87,0.62,2.77
		c0.33,1.07,1.07,1.74,2.24,1.85c1.31,0.12,2.35-0.31,3.03-1.46c0.74-1.25,0.75-3.61-0.08-4.55c-1.12-1.27-2.56-1.02-3.99-0.68
		c-0.15,0.04-0.3,0.11-0.45,0.15C1081.52,633.52,1080.85,633.99,1081.07,635.15z"/>
	<path d="M1100.62,635.44c0.77,0.69,2.28-0.49,2.24,1.15c-0.04,1.49-1.42,0.45-2.24,1.04c0,0.69-0.04,1.55,0.01,2.41
		c0.05,0.78-0.17,1.19-1.04,1.21c-0.93,0.02-1.16-0.42-1.11-1.25c0.05-0.82,0.01-1.65,0.01-2.59c-1.95,0-3.78,0-5.6,0
		c-1.76,0-2.21-0.78-1.32-2.36c0.77-1.35,1.59-2.67,2.39-4.01c1.02-1.71,2.05-3.42,3.08-5.13c0.56-0.93,2.43-1.4,3.25-0.74
		c0.24,0.19,0.31,0.69,0.31,1.05C1100.63,629.31,1100.62,632.42,1100.62,635.44z M1098.45,627.25c-0.08-0.01-0.16-0.03-0.24-0.04
		c-1.66,2.78-3.31,5.56-5.01,8.42c1.86,0,3.55,0,5.3,0c0-2.71,0-5.33,0-7.95C1098.5,627.53,1098.47,627.39,1098.45,627.25z"/>
	<path d="M1039.7,603.91c0,1.77-0.04,3.44,0.02,5.12c0.03,0.86-0.43,1-1.11,1c-0.71,0-1.08-0.21-1.08-1.04
		c0.03-4.68,0.02-9.35,0.01-14.03c0-0.68,0.17-1.24,0.96-1.24c1.64,0.01,3.29-0.06,4.9,0.16c2.7,0.35,4.17,2.04,4.2,4.53
		c0.04,2.68-1.58,4.71-4.22,5.16C1042.21,603.77,1041.01,603.79,1039.7,603.91z M1039.73,602.09c1.95-0.01,3.92,0.45,5.13-1.56
		c0.72-1.2,0.62-3.08-0.24-4.06c-1.38-1.58-3.18-0.94-4.89-1.07C1039.73,597.71,1039.73,599.81,1039.73,602.09z"/>
	<path d="M778.13,606.88c0.42,0.23,0.81,0.46,1.22,0.68c1.39,0.73,2.84,1.07,4.38,0.59c0.94-0.29,1.6-0.88,1.79-1.9
		c0.2-1.1-0.14-2.02-1.09-2.59c-1.2-0.71-2.48-1.28-3.7-1.96c-1.44-0.79-2.43-1.91-2.5-3.67c-0.11-2.67,1.62-4.46,4.59-4.53
		c0.97-0.02,1.98,0.23,2.91,0.55c1.25,0.43,1.44,1.09,0.95,2.34c-1.22-0.34-2.4-0.82-3.63-0.96c-1.36-0.16-2.28,0.51-2.57,1.49
		c-0.32,1.1,0.08,2.08,1.3,2.81c1.06,0.63,2.21,1.11,3.3,1.7c2.23,1.2,3.01,2.68,2.64,4.97c-0.31,1.94-1.76,3.25-4.02,3.71
		c-1.68,0.34-3.26,0.09-4.79-0.6C777.72,608.96,777.55,608.35,778.13,606.88z"/>
	<path d="M830.61,639.09c1.59,0.24,3.06,0.58,4.54,0.65c1.41,0.06,2.56-0.6,3.12-2c0.95-2.36-0.31-4.41-2.86-4.63
		c-0.95-0.08-1.92-0.03-2.87,0.04c-0.86,0.07-1.24-0.16-1.22-1.1c0.05-2,0.04-4,0.01-6c-0.01-0.81,0.28-1.17,1.12-1.16
		c2.12,0.03,4.24,0.02,6.36,0c0.65-0.01,0.96,0.23,0.96,0.9c0,0.66-0.19,1.05-0.95,1.04c-1.83-0.03-3.66-0.01-5.55-0.01
		c0,1.58,0,3.03,0,4.48c1.22,0.08,2.37,0.09,3.5,0.26c2.28,0.35,3.68,1.67,3.95,3.58c0.35,2.46-0.62,4.58-2.65,5.55
		c-2.26,1.09-4.57,0.94-6.87,0.09C830.16,640.41,830.56,639.63,830.61,639.09z"/>
	<path d="M1047.42,627.76c-0.39-0.98-0.24-1.7,0.74-2.2c1.71-0.87,3.48-1.16,5.34-0.63c1.58,0.45,2.51,1.55,2.69,3.17
		c0.19,1.65-0.23,3.1-1.69,4.08c-0.29,0.2-0.62,0.34-0.99,0.54c0.23,0.1,0.41,0.19,0.6,0.25c1.64,0.52,2.7,1.58,2.85,3.32
		c0.15,1.81-0.5,3.35-2.13,4.26c-2.42,1.34-4.92,1.13-7.38,0.05c-0.92-0.4-0.7-1.19-0.54-1.79c1.53,0.33,2.97,0.8,4.45,0.92
		c1.8,0.14,3.02-0.9,3.2-2.38c0.22-1.73-0.63-2.96-2.48-3.37c-0.88-0.2-1.83-0.07-2.73-0.23c-0.34-0.06-0.6-0.52-0.9-0.8
		c0.29-0.28,0.54-0.73,0.88-0.81c0.73-0.16,1.53-0.02,2.25-0.19c1.82-0.44,2.73-2.11,2.22-3.89c-0.41-1.44-2.02-2.13-3.75-1.53
		C1049.16,626.85,1048.33,627.33,1047.42,627.76z"/>
	<path d="M766.58,638.83c1.53,0.33,2.97,0.8,4.45,0.92c1.8,0.14,3.02-0.9,3.2-2.38c0.22-1.73-0.63-2.96-2.48-3.37
		c-0.88-0.2-1.83-0.07-2.73-0.23c-0.34-0.06-0.6-0.52-0.9-0.8c0.29-0.28,0.54-0.73,0.88-0.81c0.73-0.16,1.53-0.02,2.25-0.19
		c1.82-0.44,2.73-2.11,2.22-3.89c-0.41-1.44-2.02-2.13-3.75-1.53c-0.89,0.31-1.72,0.79-2.63,1.22c-0.39-0.97-0.24-1.7,0.74-2.2
		c1.71-0.87,3.48-1.16,5.34-0.63c1.58,0.45,2.51,1.55,2.69,3.17c0.19,1.65-0.23,3.1-1.69,4.08c-0.29,0.2-0.62,0.34-0.99,0.54
		c0.23,0.1,0.41,0.19,0.6,0.25c1.64,0.52,2.7,1.58,2.85,3.32c0.15,1.81-0.5,3.35-2.13,4.26c-2.42,1.34-4.92,1.13-7.38,0.05
		C766.21,640.22,766.43,639.43,766.58,638.83z"/>
	<path d="M1117.59,632.74c0.23,0.1,0.41,0.19,0.6,0.25c1.64,0.52,2.7,1.58,2.84,3.33c0.15,1.81-0.5,3.35-2.13,4.25
		c-2.42,1.34-4.92,1.13-7.38,0.05c-0.92-0.4-0.7-1.19-0.54-1.79c1.53,0.33,2.97,0.8,4.45,0.92c1.8,0.14,3.02-0.9,3.2-2.39
		c0.22-1.73-0.63-2.96-2.48-3.37c-0.88-0.2-1.83-0.07-2.73-0.23c-0.34-0.06-0.6-0.53-0.9-0.81c0.29-0.28,0.54-0.73,0.88-0.81
		c0.73-0.16,1.53-0.02,2.25-0.19c1.82-0.44,2.73-2.11,2.22-3.89c-0.41-1.44-2.02-2.13-3.76-1.53c-0.89,0.31-1.72,0.79-2.63,1.23
		c-0.38-0.98-0.23-1.7,0.75-2.2c1.71-0.87,3.48-1.16,5.34-0.63c1.58,0.45,2.51,1.55,2.69,3.17c0.19,1.65-0.23,3.1-1.69,4.08
		C1118.28,632.39,1117.95,632.54,1117.59,632.74z"/>
	<path d="M878.68,639.31c2.25,0,4.27,0.02,6.29-0.01c0.73-0.01,1.26,0.07,1.26,0.98c0,0.92-0.55,0.97-1.27,0.96
		c-2.52-0.03-5.04,0.01-7.56-0.03c-0.43-0.01-1.16-0.18-1.21-0.42c-0.13-0.52-0.09-1.22,0.18-1.68c0.37-0.64,1-1.13,1.51-1.69
		c1.23-1.36,2.57-2.65,3.64-4.13c0.7-0.97,1.23-2.17,1.46-3.34c0.47-2.42-1.34-3.95-3.71-3.22c-0.9,0.28-1.73,0.79-2.59,1.2
		c-0.6-1.12-0.5-1.78,0.6-2.28c1-0.45,2.1-0.85,3.18-0.95c3.69-0.34,5.94,2.52,4.73,6.17c-0.48,1.43-1.42,2.76-2.37,3.97
		C881.61,636.37,880.18,637.71,878.68,639.31z"/>
	<path d="M1049.52,604.21c-0.04-4.72,3.08-7.27,7.54-6.19c1.31,0.32,2.37,1.03,2.95,2.25c1.18,2.49,1.2,5.04-0.14,7.47
		c-1.17,2.12-3.7,2.96-6.51,2.32c-2.25-0.51-3.63-2.26-3.84-4.89C1049.49,604.85,1049.52,604.53,1049.52,604.21z M1058.75,604.05
		c-0.03-0.01-0.06-0.02-0.09-0.02c-0.03-0.48-0.02-0.96-0.1-1.43c-0.36-2.06-1.47-3.1-3.3-3.11c-1.9-0.02-3.22,1.04-3.46,3.08
		c-0.15,1.24-0.06,2.56,0.2,3.78c0.32,1.48,1.49,2.22,3,2.25c1.62,0.03,2.76-0.65,3.26-2.1
		C1058.52,605.7,1058.59,604.86,1058.75,604.05z"/>
	<path d="M844.32,604.14c-0.02-4.64,3.09-7.23,7.48-6.08c1,0.26,2.05,0.98,2.7,1.79c1.71,2.15,1.48,6.43-0.27,8.54
		c-1.38,1.67-4.09,2.32-6.49,1.57c-1.97-0.62-3.21-2.33-3.41-4.74C844.29,604.86,844.32,604.5,844.32,604.14z M846.32,603.99
		c0.06,0.01,0.12,0.02,0.18,0.03c0,0.36-0.02,0.72,0,1.08c0.17,2.08,1.33,3.38,3.1,3.48c2.09,0.11,3.49-0.97,3.73-3.17
		c0.14-1.24,0.02-2.56-0.26-3.78c-0.31-1.38-1.44-2.09-2.82-2.15c-1.62-0.07-2.72,0.5-3.27,1.88
		C846.64,602.19,846.53,603.11,846.32,603.99z"/>
	<path d="M1154.48,600.66c-0.53-1.1-0.24-1.78,0.78-2.18c1.68-0.67,3.39-0.92,5.16-0.44c1.31,0.35,2.3,1.17,2.38,2.54
		c0.16,2.91,0.17,5.83,0.17,8.74c0,0.23-0.48,0.66-0.74,0.66c-0.33,0-0.69-0.3-0.97-0.56c-0.13-0.12-0.09-0.42-0.15-0.76
		c-1.45,1.23-2.94,1.94-4.8,1.44c-1.55-0.42-2.49-1.41-2.62-2.88c-0.14-1.6,0.49-2.94,2.03-3.42c1.61-0.51,3.33-0.67,5.08-1
		c0.6-2.47-0.94-3.94-3.68-3.19C1156.23,599.85,1155.41,600.28,1154.48,600.66z M1160.81,604.39c-1.29,0.15-2.53,0.16-3.7,0.45
		c-1.07,0.27-1.46,1.17-1.25,2.26c0.19,1.03,0.91,1.43,1.88,1.48C1159.94,608.69,1161.1,607.22,1160.81,604.39z"/>
	<path d="M797.26,608.66c-1.45,1.22-2.94,1.94-4.8,1.44c-1.55-0.42-2.49-1.41-2.63-2.88c-0.15-1.6,0.49-2.94,2.03-3.42
		c1.61-0.51,3.33-0.67,5.09-1c0.61-2.46-0.94-3.94-3.68-3.19c-0.87,0.24-1.69,0.67-2.54,1.02c-0.59-1.08-0.47-1.64,0.57-2.09
		c1.73-0.75,3.54-1,5.38-0.46c1.25,0.36,2.2,1.19,2.27,2.51c0.16,2.91,0.17,5.83,0.17,8.74c0,0.24-0.48,0.66-0.74,0.66
		c-0.33,0-0.7-0.3-0.97-0.55C797.28,609.31,797.32,609,797.26,608.66z M796.95,604.42c-1.21,0.11-2.37,0.11-3.48,0.36
		c-1.17,0.26-1.63,1.1-1.47,2.23c0.14,1,0.86,1.56,2.05,1.57C796.19,608.61,797.3,607.13,796.95,604.42z"/>
	<path d="M1124.77,604.52c-0.39,3.76,1.99,4.75,7.36,3.19c0.48,1.21,0.38,1.57-0.79,1.94c-0.9,0.29-1.85,0.53-2.8,0.59
		c-4.3,0.3-6.8-2.9-5.96-7.55c0.66-3.66,3.26-5.49,6.7-4.72c2.5,0.56,4.23,3.33,3.55,5.81c-0.09,0.33-0.73,0.69-1.14,0.71
		c-1.92,0.07-3.84,0.03-5.76,0.03C1125.54,604.52,1125.15,604.52,1124.77,604.52z M1124.7,602.98c2.09,0,4.1,0,6.11,0
		c0.01-2.24-0.99-3.46-2.81-3.5C1126.05,599.43,1124.85,600.69,1124.7,602.98z"/>
	<path d="M1111.76,599.75c1.4-1.33,2.79-2.26,4.69-1.86c1.63,0.34,2.76,1.33,2.89,2.94c0.22,2.82,0.21,5.66,0.21,8.49
		c0,0.24-0.69,0.59-1.1,0.68c-0.59,0.13-0.96-0.18-0.96-0.88c0.02-1.8,0.01-3.59,0-5.39c0-0.64,0.01-1.29-0.09-1.91
		c-0.3-1.91-2.03-2.7-3.68-1.69c-1.21,0.74-2.03,1.64-1.89,3.28c0.16,1.82,0,3.67,0.05,5.51c0.02,0.84-0.3,1.14-1.12,1.13
		c-0.8-0.01-1-0.37-0.99-1.12c0.03-3.19,0.01-6.39,0.01-9.58c0-0.64-0.13-1.29,0.88-1.33c1.06-0.03,1.03,0.61,1.01,1.33
		C1111.67,599.42,1111.7,599.5,1111.76,599.75z"/>
	<path d="M804.98,599.5c1.02-0.54,1.94-1.23,2.96-1.54c2.25-0.68,4.46,0.65,4.68,2.97c0.26,2.77,0.21,5.58,0.2,8.37
		c0,0.24-0.67,0.61-1.08,0.7c-0.58,0.13-0.98-0.15-0.97-0.86c0.02-1.76,0.01-3.51,0-5.27c0-0.36,0-0.72-0.02-1.08
		c-0.09-2.1-0.87-3.09-2.39-3.07c-1.63,0.02-3.22,1.65-3.22,3.31c0,1.92-0.03,3.83,0.01,5.75c0.02,0.81-0.14,1.29-1.1,1.27
		c-0.9-0.01-1.02-0.47-1.01-1.22c0.03-3.15,0.01-6.31,0.01-9.46c0-0.62-0.16-1.3,0.86-1.34c1.04-0.04,1.07,0.57,1.03,1.31
		C804.95,599.4,804.98,599.48,804.98,599.5z"/>
	<path d="M976.84,532.63c-0.54,0.84-1.12,1.66-1.62,2.52c-0.94,1.61-1.5,1.62-2.47,0.04c-0.51-0.83-1.05-1.63-1.58-2.44
		c-0.15,0.03-0.3,0.07-0.45,0.1c0,1.11-0.01,2.23,0,3.34c0,0.59,0,1.16-0.81,1.2c-0.74,0.03-1.25-0.17-1.24-1.05
		c0.02-2.32-0.03-4.63,0.04-6.95c0.01-0.43,0.36-1.13,0.67-1.2c0.43-0.09,1.15,0.15,1.41,0.49c0.81,1.08,1.45,2.29,2.16,3.44
		c0.29,0.46,0.6,0.9,1.08,1.62c0.94-1.55,1.75-2.89,2.56-4.23c0.12-0.2,0.18-0.5,0.36-0.61c0.5-0.31,1.05-0.54,1.59-0.8
		c0.23,0.5,0.63,1,0.65,1.51c0.08,2.19,0.01,4.39,0.07,6.59c0.02,0.75-0.22,1.15-0.97,1.2c-0.89,0.06-1.06-0.47-1.05-1.22
		c0.03-1.13,0.01-2.26,0.01-3.39C977.12,532.72,976.98,532.67,976.84,532.63z"/>
	<path d="M818.54,639.55c0.9,0,1.7-0.08,2.47,0.04c0.34,0.05,0.82,0.45,0.9,0.77c0.15,0.62-0.25,0.9-0.92,0.89
		c-2.52-0.03-5.03,0.02-7.55-0.05c-0.3-0.01-0.58-0.52-0.88-0.8c0.29-0.28,0.55-0.77,0.86-0.81c0.94-0.11,1.9-0.04,2.92-0.04
		c0-4.07,0-8.04,0-12.21c-1.26,0.73-2.4,1.4-3.59,2.1c-0.5-0.92-0.41-1.56,0.36-2.07c1.07-0.7,2.09-1.48,3.21-2.08
		c0.51-0.28,1.25-0.38,1.8-0.23c0.25,0.07,0.38,0.94,0.38,1.45c0.03,3.87,0.02,7.75,0.02,11.62
		C818.54,638.56,818.54,638.99,818.54,639.55z"/>
	<path d="M932.69,532.85c0-1.02-0.01-2.04,0-3.06c0.01-0.77-0.22-1.78,1.03-1.73c1.13,0.04,1.2,0.84,1.15,1.8
		c-0.1,2.03-0.02,4.07-0.08,6.11c-0.01,0.45-0.3,1.24-0.51,1.26c-0.56,0.05-1.33-0.06-1.69-0.43c-1.1-1.15-2.05-2.44-3.07-3.68
		c-0.24-0.29-0.52-0.56-0.78-0.83c-0.14,0.03-0.29,0.06-0.43,0.09c0,0.79,0,1.58,0,2.38c0,0.56,0,1.12,0.01,1.68
		c0.02,0.74-0.38,0.97-1.06,0.95c-0.67-0.02-1.14-0.16-1.13-1.01c0.03-2.32-0.03-4.63,0.02-6.95c0.01-0.44,0.32-1.18,0.59-1.23
		c0.5-0.09,1.25,0.06,1.59,0.4c1.06,1.08,1.96,2.31,2.94,3.47c0.29,0.34,0.65,0.63,0.99,0.94
		C932.41,532.96,932.55,532.91,932.69,532.85z"/>
	<path d="M1144.96,640.89c2.11-4.69,4.18-9.3,6.32-14.06c-2.46,0-4.73-0.02-7,0.01c-0.77,0.01-1.35-0.05-1.33-1.03
		c0.02-0.95,0.65-0.91,1.32-0.91c2.68,0.01,5.36,0.05,8.04-0.02c1.16-0.03,1.42,0.49,1.22,1.45c-0.1,0.5-0.27,1-0.47,1.47
		c-1.77,4.06-3.55,8.12-5.33,12.18C1147.13,641.35,1146.59,641.54,1144.96,640.89z"/>
	<path d="M870.96,626.84c-2.46,0-4.73-0.01-7.01,0.01c-0.68,0.01-1.3,0.03-1.32-0.92c-0.02-0.99,0.57-1.03,1.33-1.02
		c2.68,0.03,5.36,0.06,8.04-0.01c1.17-0.03,1.4,0.51,1.21,1.46c-0.09,0.46-0.23,0.93-0.42,1.36c-1.79,4.1-3.59,8.19-5.38,12.29
		c-0.59,1.35-1.16,1.55-2.76,0.89C866.73,636.25,868.81,631.62,870.96,626.84z"/>
	<path d="M853.44,532.73c0-1.16,0.01-2.31,0-3.47c-0.01-0.83,0.29-1.29,1.19-1.24c1.43,0.09,2.88,0.02,4.29,0.26
		c2.5,0.42,3.53,3.44,1.77,5.26c-0.88,0.91-0.71,1.51-0.03,2.33c0.28,0.35,0.36,0.87,0.53,1.31c-0.67-0.07-1.42,0.03-1.98-0.25
		c-0.48-0.24-0.66-1.02-1.11-1.36c-0.49-0.37-1.15-0.67-1.74-0.68c-0.22,0-0.63,0.89-0.66,1.39c-0.04,0.86-0.41,1.1-1.19,1.11
		c-0.86,0.01-1.1-0.41-1.07-1.19C853.47,535.05,853.44,533.89,853.44,532.73z M855.66,531.33c-0.11,1.01,0.01,1.77,1.33,1.69
		c1.49-0.08,2.39-0.63,2.38-1.62c-0.01-0.95-0.99-1.54-2.4-1.6C855.76,529.75,855.5,530.34,855.66,531.33z"/>
	<path d="M1041.49,532.79c0-1.16,0.02-2.32-0.01-3.47c-0.02-0.91,0.38-1.34,1.29-1.29c1.35,0.07,2.71,0.08,4.06,0.23
		c1.2,0.13,2.09,0.82,2.45,2c0.39,1.25,0.37,2.51-0.71,3.42c-1.02,0.86-0.42,1.47,0.09,2.22c0.25,0.37,0.32,0.87,0.47,1.3
		c-0.67-0.08-1.42,0.01-1.97-0.28c-0.47-0.25-0.62-1.05-1.08-1.39c-0.49-0.36-1.17-0.61-1.77-0.6c-0.22,0-0.6,0.85-0.62,1.32
		c-0.04,0.86-0.43,1.12-1.19,1.13c-0.89,0.02-1.05-0.48-1.03-1.24C1041.53,535.03,1041.5,533.91,1041.49,532.79
		C1041.5,532.79,1041.49,532.79,1041.49,532.79z M1043.68,531.38c-0.18,1.1,0.16,1.69,1.38,1.64c1.51-0.06,2.32-0.6,2.27-1.67
		c-0.04-0.99-0.86-1.49-2.28-1.55C1043.84,529.75,1043.46,530.3,1043.68,531.38z"/>
	<path d="M990.85,532.67c0-1.16,0-2.31,0-3.47c0-0.71,0.29-1.18,1.05-1.15c1.55,0.06,3.13,0.01,4.64,0.3
		c2.22,0.43,3.18,3.55,1.58,5.14c-0.91,0.91-0.84,1.52-0.1,2.4c0.28,0.34,0.29,0.91,0.42,1.37c-0.66-0.12-1.41-0.08-1.95-0.4
		c-0.47-0.27-0.62-1.05-1.07-1.39c-0.46-0.34-1.13-0.6-1.68-0.54c-0.28,0.03-0.64,0.83-0.66,1.29c-0.04,0.83-0.36,1.16-1.15,1.17
		c-0.78,0.01-1.05-0.41-1.05-1.13c0.01-1.2,0-2.39,0-3.59C990.87,532.67,990.86,532.67,990.85,532.67z M993.02,531.19
		c0,1.65,0.15,1.83,1.39,1.83c1.52,0,2.32-0.59,2.27-1.65c-0.04-0.99-0.86-1.5-2.28-1.55C993.33,529.77,992.81,530.16,993.02,531.19
		z"/>
	<path d="M959.48,527.92c0.94,0.09,1.92,0.33,2.45,1.43c0.51,1.05-0.06,1.78-0.73,2.43c-0.48,0.47-0.67,0.86-0.12,1.4
		c0.51,0.5,0.89,0.52,1.37-0.08c0.17-0.21,0.79-0.27,1.03-0.12c0.24,0.15,0.32,0.64,0.36,0.99c0.09,0.67,0.13,1.35,0.14,2.03
		c0,0.33-0.03,0.76-0.23,0.96c-0.19,0.18-0.73,0.28-0.92,0.14c-0.68-0.51-1.18-0.21-1.85,0.05c-1.41,0.55-2.92,0.66-4.27-0.21
		c-1.56-0.99-1.74-2.57-0.39-3.81c0.76-0.7,0.84-1.26,0.41-2.17C956.03,529.46,957.38,527.95,959.48,527.92z M959.58,535.87
		c0.11-0.08,0.47-0.34,0.84-0.6c-0.61-0.57-1.22-1.14-1.83-1.71c-0.33,0.38-0.91,0.74-0.94,1.13
		C957.59,535.65,958.34,535.91,959.58,535.87z M959.43,528.94c-0.44,0.66-0.8,0.99-0.84,1.35c-0.03,0.25,0.39,0.55,0.61,0.83
		c0.32-0.28,0.79-0.51,0.92-0.87C960.21,530.03,959.8,529.62,959.43,528.94z"/>
	<path d="M944.16,533.22c0-1.24,0.05-2.48-0.02-3.71c-0.05-0.91,0.29-1.42,1.17-1.44c1.68-0.04,3.36-0.07,5.03,0.02
		c0.37,0.02,0.71,0.57,1.07,0.87c-0.36,0.28-0.7,0.75-1.1,0.8c-0.94,0.12-1.92-0.04-2.87,0.09c-0.37,0.05-0.99,0.63-0.94,0.84
		c0.1,0.42,0.52,0.96,0.92,1.08c0.58,0.18,1.26,0.04,1.9,0.05c0.67,0.01,1.51-0.1,1.5,0.9c-0.01,0.96-0.83,0.78-1.44,0.81
		c-0.68,0.03-1.39-0.1-2.03,0.05c-0.36,0.09-0.89,0.65-0.85,0.95c0.05,0.42,0.5,1.06,0.86,1.12c1.02,0.15,2.08-0.03,3.1,0.1
		c0.42,0.05,0.78,0.56,1.16,0.86c-0.37,0.26-0.73,0.73-1.11,0.74c-1.71,0.08-3.43,0.03-5.15,0.04c-0.81,0.01-1.15-0.36-1.12-1.18
		c0.04-1,0.01-2,0.01-3C944.23,533.22,944.2,533.22,944.16,533.22z"/>
	<path d="M862.86,532.68c0-1.08,0.03-2.16-0.01-3.23c-0.03-0.95,0.37-1.42,1.33-1.42c1.56,0.01,3.12-0.06,4.67,0.05
		c0.4,0.03,1.02,0.52,1.09,0.89c0.14,0.75-0.54,0.84-1.13,0.84c-0.88,0-1.77-0.09-2.63,0.04c-0.43,0.07-1.06,0.48-1.14,0.84
		c-0.15,0.76,0.42,1.13,1.18,1.13c0.72,0,1.46-0.11,2.15,0.04c0.37,0.08,0.65,0.59,0.97,0.91c-0.33,0.26-0.64,0.68-1,0.74
		c-0.74,0.12-1.54-0.08-2.26,0.08c-0.41,0.09-0.95,0.56-1.04,0.96c-0.16,0.66,0.28,1.14,1.03,1.15c1,0.01,2.01-0.07,2.99,0.05
		c0.39,0.05,0.72,0.54,1.08,0.83c-0.35,0.27-0.69,0.76-1.05,0.78c-1.67,0.08-3.35,0.03-5.03,0.04c-0.85,0.01-1.23-0.36-1.2-1.24
		C862.89,535,862.86,533.84,862.86,532.68z"/>
	<path d="M816.98,597.82c0-0.6,0.02-1.31-0.01-2.02c-0.03-0.72,0.39-0.88,0.98-0.89c0.6,0,1.15,0.04,1.13,0.86
		c-0.02,0.71,0,1.42,0,2.23c1.1,0,2.08,0,3.03,0c0.5,1.47,0.35,1.7-0.98,1.71c-0.63,0-1.26,0-1.99,0c0,2.56-0.06,5.02,0.03,7.48
		c0.04,1.07,0.75,1.51,1.84,1.37c0.38-0.05,0.76-0.16,1.18-0.25c0.35,0.95,0.28,1.56-0.82,1.82c-2.5,0.58-4.14-0.48-4.32-3.03
		c-0.15-1.99-0.06-4-0.07-5.99c0-0.43,0-0.86,0-1.16c-0.66-0.58-1.9,0.38-1.96-1.02C814.96,597.4,816.3,598.36,816.98,597.82z"/>
	<path d="M1075.45,599.72c0,2.52-0.05,4.91,0.02,7.3c0.04,1.27,0.79,1.75,2.04,1.53c0.31-0.05,0.61-0.15,0.9-0.23
		c0.51,1.2,0.35,1.55-0.78,1.82c-2.44,0.57-4.06-0.48-4.25-2.97c-0.15-1.87-0.06-3.76-0.08-5.63c0-0.55,0-1.11,0-1.59
		c-0.63-0.57-2.1,0.43-1.95-1.18c0.12-1.3,1.24-0.42,1.95-0.92c0-0.56,0.03-1.27-0.01-1.97c-0.04-0.78,0.4-0.95,1.04-0.95
		c0.64,0,1.11,0.14,1.07,0.93c-0.03,0.67-0.01,1.35-0.01,2.19c0.49,0,0.94-0.08,1.33,0.02c0.69,0.17,1.91-0.65,1.94,0.79
		c0.04,1.48-1.2,0.7-1.89,0.86C1076.41,599.79,1076,599.72,1075.45,599.72z"/>
	<path d="M1148.6,598.02c1.11,0,2.09,0,3.04,0c0.48,1.47,0.34,1.69-1,1.7c-0.56,0.01-1.12,0.01-1.68,0.02
		c-0.07,0-0.14,0.05-0.3,0.11c0,2.44-0.06,4.9,0.03,7.36c0.04,1.07,0.76,1.5,1.85,1.36c0.38-0.05,0.76-0.16,1.17-0.25
		c0.41,1.05,0.16,1.62-0.95,1.85c-2.41,0.49-3.98-0.52-4.18-2.95c-0.16-1.99-0.07-3.99-0.09-5.99c0-0.47,0-0.94,0-1.27
		c-0.67-0.57-1.91,0.38-1.96-1.03c-0.05-1.52,1.29-0.55,1.96-1.11c0-0.6,0.02-1.31-0.01-2.02c-0.03-0.73,0.41-0.87,0.99-0.88
		c0.6,0,1.14,0.06,1.12,0.88C1148.58,596.5,1148.6,597.21,1148.6,598.02z"/>
	<path d="M1135.43,607.81c1.28,0.27,2.45,0.62,3.65,0.74c0.95,0.1,1.86-0.23,2.12-1.33c0.28-1.14-0.46-1.69-1.34-2.1
		c-0.83-0.38-1.7-0.69-2.52-1.11c-1.31-0.68-1.89-1.77-1.72-3.26c0.16-1.41,1-2.34,2.28-2.62c1.09-0.24,2.3-0.22,3.4-0.02
		c1.34,0.24,1.51,0.72,1.25,2.3c-0.33-0.15-0.63-0.33-0.94-0.42c-0.72-0.19-1.45-0.44-2.18-0.48c-0.85-0.06-1.6,0.26-1.81,1.21
		c-0.21,0.95,0.33,1.52,1.11,1.89c0.9,0.43,1.83,0.78,2.73,1.21c1.23,0.59,1.92,1.56,1.86,2.95c-0.06,1.39-0.71,2.45-2.01,3.01
		c-1.75,0.75-3.51,0.63-5.24-0.08C1135.05,609.28,1135.21,608.5,1135.43,607.81z"/>
	<path d="M1032.95,532.67c0-1.12,0.01-2.24,0-3.36c-0.01-0.85,0.38-1.27,1.22-1.27c1.6-0.01,3.2-0.06,4.79,0.04
		c0.39,0.03,0.74,0.6,1.1,0.93c-0.37,0.26-0.72,0.7-1.12,0.75c-0.86,0.12-1.75,0.03-2.63,0.04c-0.63,0.01-1.25,0.09-1.23,0.94
		c0.02,0.82,0.55,1.08,1.29,1.07c0.64-0.01,1.28,0,1.92-0.01c0.64-0.01,1.14,0.16,1.13,0.91c-0.01,0.79-0.58,0.84-1.18,0.83
		c-0.68-0.01-1.39-0.12-2.03,0.03c-0.43,0.1-0.99,0.54-1.08,0.92c-0.17,0.73,0.3,1.19,1.1,1.2c0.96,0,1.93-0.08,2.87,0.04
		c0.39,0.05,0.73,0.53,1.09,0.81c-0.35,0.28-0.68,0.79-1.04,0.81c-1.67,0.09-3.35,0.03-5.03,0.04c-0.85,0.01-1.23-0.36-1.19-1.24
		c0.05-1.16,0.01-2.32,0.01-3.48C1032.94,532.67,1032.94,532.67,1032.95,532.67z"/>
	<path d="M979.92,537c1.18-2.62,2.35-5.14,3.44-7.7c0.34-0.8,0.77-1.26,1.66-1.27c0.9-0.01,1.29,0.51,1.63,1.29
		c1.04,2.41,2.19,4.77,3.24,7.18c0.08,0.19-0.27,0.82-0.36,0.81c-0.58-0.09-1.23-0.17-1.7-0.49c-0.49-0.34-0.73-1.27-1.2-1.36
		c-1.07-0.21-2.23-0.15-3.33-0.02c-0.34,0.04-0.67,0.61-0.92,1C981.72,537.53,981.2,537.67,979.92,537z M985.02,534.06
		c0.51-0.46,1.16-0.88,1.1-1.01c-0.3-0.71-0.77-1.34-1.18-2c-0.38,0.66-0.84,1.28-1.07,1.99
		C983.81,533.2,984.51,533.62,985.02,534.06z"/>
	<path d="M1022.82,531.49c0-0.76,0.01-1.52,0-2.28c-0.01-0.79,0.33-1.18,1.14-1.19c0.88-0.01,1.08,0.49,1.08,1.23
		c0,1.48-0.14,2.98,0.09,4.43c0.11,0.69,0.78,1.51,1.41,1.84c0.47,0.24,1.48-0.04,1.91-0.45c0.45-0.43,0.64-1.27,0.7-1.95
		c0.11-1.23,0.05-2.48,0.04-3.72c-0.01-0.78,0.23-1.37,1.12-1.36c0.87,0.01,1.01,0.63,1,1.33c-0.03,1.6,0.03,3.21-0.12,4.79
		c-0.21,2.21-1.74,3.36-4.18,3.33c-2.35-0.03-3.92-1.33-4.11-3.49c-0.08-0.83-0.01-1.68-0.01-2.52
		C1022.87,531.49,1022.84,531.49,1022.82,531.49z"/>
	<path d="M895.11,537.6c-0.4-0.36-0.96-0.65-1.18-1.1c-0.46-0.94-1.11-1.28-2.1-1.14c-0.35,0.05-0.72,0.05-1.08,0
		c-1.05-0.15-1.75,0.18-2.19,1.2c-0.15,0.34-0.58,0.69-0.94,0.77c-0.37,0.09-0.81-0.14-1.22-0.23c0.07-0.33,0.09-0.69,0.23-0.99
		c1.04-2.38,2.05-4.76,3.19-7.09c0.22-0.46,0.95-0.91,1.45-0.92c0.5-0.01,1.24,0.44,1.46,0.89c1.2,2.43,2.25,4.93,3.39,7.39
		C896.59,537.39,895.92,537.33,895.11,537.6z M891.3,534.05c0.51-0.45,1.16-0.88,1.11-1c-0.31-0.71-0.78-1.34-1.2-2
		c-0.38,0.66-0.84,1.29-1.08,2C890.07,533.21,890.79,533.63,891.3,534.05z"/>
	<path d="M905.44,531.46c-0.14,1.14-0.17,2.32-0.44,3.43c-0.43,1.73-1.78,2.59-3.82,2.62c-2.15,0.03-3.67-0.74-3.99-2.51
		c-0.36-1.98-0.34-4.04-0.34-6.07c0-0.29,0.75-0.79,1.17-0.82c0.29-0.02,0.84,0.58,0.89,0.96c0.13,0.98,0.04,1.99,0.04,2.99
		c0,0.4-0.01,0.8,0.02,1.2c0.1,1.47,0.97,2.46,2.14,2.44c1.13-0.02,1.99-0.96,2.06-2.38c0.06-1.24,0.02-2.48,0.03-3.72
		c0-0.73-0.06-1.56,1-1.55c1.05,0.01,1.16,0.76,1.13,1.6c-0.03,0.6,0,1.2,0,1.8C905.37,531.45,905.4,531.45,905.44,531.46z"/>
	<path d="M1062.2,537.38c-0.16-0.16-0.67-0.48-0.88-0.94c-0.35-0.78-0.86-1.1-1.67-1.09c-0.64,0.01-1.28,0.02-1.91,0
		c-0.86-0.02-1.38,0.34-1.75,1.15c-0.19,0.4-0.77,0.76-1.22,0.84c-0.87,0.16-1.16-0.3-0.79-1.14c1.02-2.29,2.02-4.59,3.05-6.88
		c0.34-0.75,0.76-1.38,1.77-1.32c0.95,0.05,1.29,0.7,1.61,1.39c1.03,2.24,2.03,4.5,3.04,6.75
		C1063.86,537.06,1063.63,537.4,1062.2,537.38z M1058.9,530.71c-0.14,0.02-0.28,0.03-0.41,0.05c-0.31,0.67-0.66,1.33-0.9,2.03
		c-0.08,0.22,0.12,0.75,0.25,0.78c0.53,0.1,1.1,0.11,1.63,0.02c0.16-0.03,0.39-0.54,0.33-0.75
		C1059.55,532.11,1059.2,531.42,1058.9,530.71z"/>
	<path d="M874.33,537.64c-0.88-0.21-1.81-0.33-2.62-0.69c-0.36-0.16-0.48-0.83-0.72-1.26c0.48-0.12,0.97-0.36,1.44-0.33
		c0.78,0.06,1.55,0.44,2.31,0.41c0.47-0.02,0.93-0.54,1.39-0.84c-0.39-0.39-0.72-0.92-1.19-1.14c-0.78-0.36-1.68-0.48-2.49-0.79
		c-1.03-0.39-1.62-1.16-1.56-2.3c0.06-1.15,0.7-1.94,1.73-2.37c1.34-0.55,2.71-0.6,4.1-0.14c0.62,0.2,1.16,0.4,0.95,1.22
		c-0.21,0.81-0.75,0.6-1.33,0.51c-0.7-0.12-1.43-0.23-2.13-0.15c-0.38,0.04-0.72,0.49-1.07,0.75c0.28,0.33,0.49,0.79,0.85,0.97
		c0.55,0.29,1.2,0.43,1.81,0.58c1.74,0.41,2.7,1.41,2.62,2.77c-0.08,1.32-1.35,2.44-2.97,2.61c-0.36,0.04-0.72,0.05-1.07,0.07
		C874.35,537.56,874.34,537.6,874.33,537.64z"/>
	<path d="M1070.39,599.93c-2.9-0.39-4.36,0.92-4.36,3.82c0,1.68-0.03,3.35,0.01,5.03c0.02,0.8-0.13,1.28-1.09,1.28
		c-1.02,0-1.02-0.59-1.01-1.34c0.02-3.11,0.01-6.22,0.01-9.33c0-0.69-0.11-1.38,0.96-1.37c0.99,0.01,0.95,0.62,0.92,1.28
		c0,0.12,0.03,0.23,0.06,0.53c0.33-0.35,0.54-0.67,0.83-0.87c0.57-0.41,1.15-0.92,1.8-1.09
		C1070.16,597.45,1070.81,598.19,1070.39,599.93z"/>
	<path d="M882.58,528.04c1,0,2.01-0.09,2.99,0.04c0.4,0.06,0.74,0.61,1.1,0.93c-0.37,0.27-0.71,0.73-1.1,0.77
		c-1.92,0.19-1.92,0.15-1.92,2.04c0,1.48-0.02,2.95,0.02,4.43c0.02,0.82-0.31,1.14-1.13,1.15c-0.83,0-1.13-0.35-1.11-1.16
		c0.04-1.71-0.02-3.43,0.04-5.15c0.03-0.91-0.27-1.31-1.22-1.3c-0.72,0.01-1.85,0.36-1.82-0.89c0.04-1.19,1.14-0.82,1.88-0.87
		C881.07,528,881.83,528.03,882.58,528.04C882.58,528.03,882.58,528.04,882.58,528.04z"/>
	<path d="M938.56,533.5c0-0.8-0.04-1.6,0.01-2.4c0.05-0.94-0.38-1.32-1.28-1.29c-0.28,0.01-0.61,0.08-0.83-0.03
		c-0.35-0.18-0.86-0.5-0.86-0.77c0-0.31,0.46-0.88,0.74-0.89c2.15-0.08,4.31-0.09,6.47-0.01c0.29,0.01,0.55,0.64,0.83,0.98
		c-0.32,0.24-0.62,0.54-0.98,0.71c-0.23,0.11-0.55,0.03-0.83,0.02c-0.85-0.01-1.22,0.38-1.19,1.25c0.05,1.68,0,3.36,0.05,5.03
		c0.03,0.84-0.21,1.3-1.12,1.28c-0.86-0.02-1.08-0.47-1.03-1.25c0.05-0.88,0.01-1.76,0.01-2.64
		C938.55,533.5,938.56,533.5,938.56,533.5z"/>
	<path d="M858.74,603.97c0-1.64,0.04-3.28-0.01-4.91c-0.03-0.82,0.35-1.04,1.08-1.03c0.67,0.01,1.03,0.22,1.03,0.97
		c-0.02,3.36-0.02,6.71,0,10.07c0.01,0.76-0.36,0.96-1.03,0.97c-0.72,0.01-1.1-0.2-1.08-1.03
		C858.77,607.33,858.74,605.65,858.74,603.97z"/>
	<path d="M1103.78,603.94c0-1.64,0.03-3.28-0.01-4.91c-0.02-0.74,0.29-1,0.98-1c0.7-0.01,1.13,0.16,1.12,1
		c-0.03,3.36-0.02,6.71,0,10.07c0.01,0.78-0.41,0.94-1.06,0.94c-0.64,0-1.07-0.14-1.05-0.93
		C1103.81,607.38,1103.78,605.66,1103.78,603.94z"/>
	<path d="M1050.71,532.73c0-1.16,0-2.31,0-3.47c0-0.72,0.2-1.28,1.07-1.25c0.77,0.02,1.16,0.42,1.15,1.21
		c-0.02,2.43,0.02,4.86-0.07,7.29c-0.01,0.3-0.59,0.73-0.98,0.84c-0.57,0.16-1.15-0.01-1.16-0.79
		C1050.71,535.28,1050.72,534,1050.71,532.73C1050.72,532.73,1050.72,532.73,1050.71,532.73z"/>
	<path d="M1000.07,532.75c0-1.2,0-2.39,0-3.59c0-0.7,0.25-1.15,1.04-1.14c0.79,0.01,1.17,0.37,1.16,1.17
		c-0.01,2.39-0.03,4.78-0.01,7.17c0.01,0.81-0.41,1.02-1.12,1.03c-0.75,0.01-1.1-0.29-1.09-1.06
		C1000.09,535.14,1000.08,533.94,1000.07,532.75z"/>
	<path d="M861.03,594.59c0.02,0.94-0.46,1.28-1.27,1.28c-0.81,0-1.28-0.34-1.28-1.2c0-0.86,0.49-1.19,1.29-1.2
		C860.58,593.47,861.06,593.8,861.03,594.59z"/>
	<path d="M1106.07,594.68c0,0.92-0.53,1.2-1.32,1.19c-0.83-0.01-1.25-0.41-1.23-1.25c0.02-0.87,0.55-1.15,1.33-1.15
		C1105.69,593.48,1106.11,593.88,1106.07,594.68z"/>
	<path d="M1051.38,527.29c-0.07-1.46,0.94-2.21,2.45-1.8C1053.67,526.36,1052.55,527.18,1051.38,527.29z"/>
	<path class="st0" d="M948.85,459.81c-7.24,0.05-12.31-0.28-17.18-1.9c-1.84-0.61-3.55-1.62-5.29-2.49c-0.83-0.41-0.97-1-0.45-1.85
		c1.52-2.45,3.51-4.45,5.74-6.23c4.4-3.52,9.32-6.11,14.51-8.26c10.54-4.37,21.53-6.56,32.9-6.57c3.88,0,7.82,0.62,11.63,1.44
		c2.4,0.51,4.65,1.84,6.9,2.93c1.21,0.59,1.31,1.3,0.56,2.45c-2.17,3.29-5.08,5.82-8.3,8.03c-6,4.11-12.63,6.87-19.54,8.91
		C962.64,458.55,954.77,459.92,948.85,459.81z"/>
	<path class="st0" d="M924.8,459.24c1.68,0.72,3.32,1.54,5.04,2.14c5.15,1.77,10.47,2.51,15.92,2.26c2.72-0.12,5.43-0.34,8.14-0.45
		c5.87-0.23,11.56-1.46,17.18-3.1c5.03-1.47,9.92-3.32,14.58-5.72c5.04-2.6,9.73-5.68,13.54-9.95c0.64-0.72,1.25-1.47,2.07-2.43
		c0.61,2.18,0.08,3.8-0.74,5.37c-2.46,4.72-6.47,7.93-10.91,10.51c-3.92,2.28-8.03,4.33-12.25,5.97c-4.11,1.6-8.43,2.73-12.74,3.74
		c-7.6,1.8-15.33,2.27-23.12,1.61c-4.37-0.37-8.61-1.32-12.47-3.54c-1.72-0.99-3.23-2.25-4.12-4.07c-0.32-0.66-0.37-1.46-0.54-2.2
		C924.53,459.34,924.67,459.29,924.8,459.24z"/>
	<path class="st0" d="M977.95,428.67c-6.43-0.15-12.84,0.82-19.15,2.27c-6.03,1.38-11.91,3.32-17.51,6
		c-5.65,2.7-10.99,5.87-15.4,10.41c-0.78,0.8-1.42,1.73-2.18,2.55c-0.27,0.29-0.68,0.44-1.03,0.66c-0.14-0.4-0.37-0.79-0.39-1.2
		c-0.11-2,0.6-3.77,1.62-5.42c1.92-3.12,4.61-5.48,7.57-7.58c4.82-3.41,10.1-5.91,15.66-7.89c10.62-3.78,21.53-5.72,32.81-5.12
		c4.43,0.24,8.82,0.99,12.93,2.8c2.43,1.07,4.69,2.43,6.09,4.83c0.18,0.31,0.4,0.62,0.47,0.96c0.08,0.35,0,0.73,0,1.1
		c-0.36-0.09-0.75-0.12-1.08-0.26c-1.46-0.64-2.85-1.47-4.35-1.94C988.81,429.18,983.48,428.49,977.95,428.67z"/>
	<path class="st0" d="M903.08,508.29c0.75-3.91,1.39-7.85,2.3-11.72c0.57-2.47,1.39-4.91,2.36-7.26c1.18-2.85,3.09-3.83,6.22-3.56
		c1.27,0.11,2.54,0.25,3.82,0.37c1.37,0.13,1.65,0.44,1.28,1.74c-0.93,3.25-1.75,6.55-2.92,9.72c-1.57,4.25-3.77,8.19-6.78,11.61
		c-0.88,1-1.95,1.93-3.12,2.53c-1.58,0.82-2.71,0-2.83-1.81c-0.03-0.52-0.01-1.04-0.01-1.56
		C903.28,508.32,903.18,508.3,903.08,508.29z"/>
	<path class="st0" d="M1013.86,505.23c0.03-5,0.39-9.99,2.14-14.73c0.58-1.58,1.45-3.11,2.44-4.48c1.08-1.5,2.68-2.28,4.62-1.87
		c2.11,0.45,3.04,2.01,3.54,3.94c0.84,3.23,0.58,6.51,0.33,9.77c-0.28,3.62-0.68,7.23-1.87,10.7c-0.71,2.05-1.53,4.04-3.13,5.58
		c-2.61,2.51-6.48,1.44-7.45-2.04c-0.24-0.84-0.52-1.7-0.58-2.57C1013.79,508.1,1013.86,506.66,1013.86,505.23z"/>
	<path class="st0" d="M1013.65,532.7c0-1.77,1.16-2.92,2.92-2.91c1.61,0.02,2.86,1.27,2.88,2.89c0.02,1.58-1.37,3.03-2.92,3.04
		C1014.91,535.72,1013.65,534.39,1013.65,532.7z"/>
	<path class="st0" d="M909.31,531.22c-0.14-0.89,0.14-1.47,1.33-1.42c1.42,0.06,2.38,0.65,2.38,1.61c0,1.02-0.85,1.59-2.38,1.6
		C909.45,533.02,909.31,532.85,909.31,531.22z"/>
	<path class="st0" d="M920.55,530.72c0.32,0.7,0.66,1.39,0.92,2.12c0.07,0.19-0.1,0.68-0.22,0.7c-0.57,0.08-1.17,0.1-1.74,0.03
		c-0.13-0.02-0.33-0.56-0.26-0.78c0.23-0.7,0.57-1.36,0.88-2.03C920.28,530.74,920.42,530.73,920.55,530.72z"/>
	<path class="st0" d="M833.62,602.62c1.22,0,2.37-0.07,3.51,0.02c1.75,0.14,2.82,1.34,2.79,2.97c-0.03,1.62-1.18,2.68-3,2.73
		c-0.91,0.03-1.83,0.01-2.75,0.01c-0.16,0-0.31-0.02-0.56-0.04C833.62,606.45,833.62,604.61,833.62,602.62z"/>
	<path class="st0" d="M833.59,600.96c0-1.9,0-3.64,0-5.58c1.65,0.21,3.43-0.58,4.81,0.96c0.68,0.75,0.7,2.5,0.08,3.4
		C837.2,601.58,835.3,600.66,833.59,600.96z"/>
	<path class="st0" d="M1161.4,639.78c-2.13-0.01-3.35-0.97-3.31-2.6c0.03-1.29,1.95-3.34,3.16-3.39c1.29-0.05,3.49,2.13,3.49,3.47
		C1164.75,638.92,1163.59,639.79,1161.4,639.78z"/>
	<path class="st0" d="M1158.65,628.66c-0.01-1.46,0.97-2.3,2.72-2.31c1.82-0.01,2.86,0.84,2.85,2.31c-0.01,1.22-1.7,3.19-2.7,3.15
		C1160.4,631.77,1158.66,629.86,1158.65,628.66z"/>
	<path class="st0" d="M845.37,633.03c0.22-1.48,0.32-2.93,0.68-4.3c0.45-1.7,1.53-2.42,3.13-2.37c1.45,0.05,2.39,0.81,2.78,2.48
		c0.66,2.79,0.73,5.61,0,8.4c-0.34,1.31-1.07,2.33-2.54,2.52c-1.69,0.22-2.91-0.48-3.34-2.18
		C845.7,636.09,845.59,634.53,845.37,633.03z"/>
	<path class="st0" d="M1132.91,633.39c-0.24,1.32-0.39,2.84-0.81,4.27c-0.43,1.52-1.47,2.15-2.94,2.12
		c-1.41-0.02-2.37-0.68-2.78-2.18c-0.8-2.94-0.82-5.92-0.04-8.86c0.46-1.71,1.53-2.43,3.13-2.39c1.5,0.04,2.43,0.81,2.81,2.58
		C1132.59,630.33,1132.7,631.77,1132.91,633.39z"/>
	<path class="st0" d="M761.51,631.2c0.03,1.38-1.01,2.07-3.17,2.1c-2.15,0.03-3.16-0.99-3.21-3.24c-0.04-2.19,1.16-3.67,3.01-3.71
		C760.31,626.32,761.44,627.95,761.51,631.2z"/>
	<path class="st0" d="M1041.83,631.21c0.03,1.38-1.02,2.06-3.18,2.09c-2.14,0.03-3.16-1-3.2-3.25c-0.04-2.2,1.16-3.67,3.02-3.7
		C1040.63,626.32,1041.77,627.96,1041.83,631.21z"/>
	<path class="st0" d="M1074.48,636.15c-0.29,0.81-0.47,1.68-0.9,2.4c-0.63,1.07-1.72,1.34-2.91,1.21c-1.11-0.12-1.89-0.76-2.15-1.8
		c-0.3-1.18-0.41-2.41-0.53-3.63c-0.02-0.23,0.26-0.66,0.47-0.71c1.25-0.29,2.53-0.72,3.79-0.68
		C1073.65,632.99,1074.3,634.21,1074.48,636.15z"/>
	<path class="st0" d="M800.75,635.16c-0.22-1.16,0.44-1.63,1.38-1.92c0.19-0.06,0.38-0.13,0.57-0.18c1.76-0.51,3.24-0.21,3.95,0.79
		c0.77,1.09,0.71,3.47-0.11,4.66c-0.74,1.07-1.79,1.4-3.02,1.25c-1.11-0.13-1.82-0.81-2.13-1.83
		C801.1,637.03,800.95,636.08,800.75,635.16z"/>
	<path class="st0" d="M787.55,635.13c-0.18-1.08,0.38-1.58,1.3-1.86c0.19-0.06,0.37-0.15,0.56-0.19c1.43-0.34,2.96-0.65,3.95,0.72
		c0.98,1.36,0.84,2.95,0.12,4.43c-0.59,1.2-1.65,1.65-2.97,1.56c-1.23-0.08-2-0.76-2.35-1.88
		C787.89,637,787.75,636.05,787.55,635.13z"/>
	<path class="st0" d="M1081.07,635.15c-0.22-1.17,0.45-1.63,1.38-1.92c0.15-0.05,0.3-0.12,0.45-0.15c1.43-0.34,2.87-0.59,3.99,0.68
		c0.83,0.94,0.82,3.3,0.08,4.55c-0.69,1.15-1.72,1.58-3.03,1.46c-1.17-0.11-1.91-0.78-2.24-1.85
		C1081.42,637.02,1081.27,636.08,1081.07,635.15z"/>
	<path class="st0" d="M1098.45,627.25c0.02,0.14,0.04,0.29,0.04,0.43c0,2.62,0,5.25,0,7.95c-1.75,0-3.44,0-5.3,0
		c1.7-2.86,3.36-5.64,5.01-8.42C1098.29,627.22,1098.37,627.23,1098.45,627.25z"/>
	<path class="st0" d="M1039.73,602.09c0-2.27,0-4.38,0-6.69c1.71,0.13,3.51-0.51,4.89,1.07c0.86,0.98,0.96,2.86,0.24,4.06
		C1043.65,602.54,1041.68,602.07,1039.73,602.09z"/>
	<path class="st0" d="M1058.75,604.05c-0.16,0.81-0.23,1.66-0.5,2.44c-0.5,1.45-1.64,2.13-3.26,2.1c-1.51-0.03-2.68-0.77-3-2.25
		c-0.26-1.22-0.35-2.54-0.2-3.78c0.24-2.04,1.56-3.1,3.46-3.08c1.84,0.02,2.95,1.05,3.3,3.11c0.08,0.47,0.07,0.95,0.1,1.43
		C1058.69,604.03,1058.72,604.04,1058.75,604.05z"/>
	<path class="st0" d="M846.32,603.99c0.21-0.88,0.32-1.8,0.65-2.64c0.55-1.37,1.66-1.94,3.27-1.88c1.39,0.06,2.51,0.77,2.82,2.15
		c0.28,1.22,0.4,2.54,0.26,3.78c-0.24,2.2-1.65,3.29-3.73,3.17c-1.77-0.1-2.93-1.4-3.1-3.48c-0.03-0.36,0-0.72,0-1.08
		C846.44,604.02,846.38,604,846.32,603.99z"/>
	<path class="st0" d="M1160.81,604.39c0.29,2.82-0.87,4.3-3.07,4.19c-0.98-0.05-1.69-0.45-1.88-1.48c-0.2-1.08,0.19-1.99,1.25-2.26
		C1158.28,604.55,1159.52,604.54,1160.81,604.39z"/>
	<path class="st0" d="M796.95,604.42c0.35,2.71-0.75,4.19-2.9,4.16c-1.18-0.01-1.91-0.57-2.05-1.57c-0.16-1.13,0.3-1.97,1.47-2.23
		C794.58,604.53,795.74,604.54,796.95,604.42z"/>
	<path class="st0" d="M1124.7,602.98c0.14-2.29,1.35-3.55,3.3-3.5c1.82,0.05,2.82,1.26,2.81,3.5
		C1128.8,602.98,1126.79,602.98,1124.7,602.98z"/>
	<path class="st0" d="M855.66,531.33c-0.15-0.99,0.1-1.59,1.31-1.53c1.41,0.07,2.39,0.65,2.4,1.6c0.01,0.99-0.89,1.54-2.38,1.62
		C855.67,533.1,855.55,532.34,855.66,531.33z"/>
	<path class="st0" d="M1043.68,531.38c-0.21-1.08,0.16-1.63,1.37-1.58c1.42,0.06,2.24,0.56,2.28,1.55c0.05,1.06-0.76,1.61-2.27,1.67
		C1043.84,533.07,1043.5,532.48,1043.68,531.38z"/>
	<path class="st0" d="M993.02,531.19c-0.2-1.03,0.31-1.41,1.39-1.38c1.41,0.05,2.23,0.56,2.28,1.55c0.04,1.07-0.76,1.65-2.27,1.65
		C993.16,533.02,993.02,532.83,993.02,531.19z"/>
	<path class="st0" d="M959.58,535.87c-1.24,0.04-1.98-0.22-1.93-1.19c0.02-0.39,0.61-0.75,0.94-1.13c0.61,0.57,1.22,1.14,1.83,1.71
		C960.05,535.53,959.68,535.8,959.58,535.87z"/>
	<path class="st0" d="M959.43,528.94c0.38,0.67,0.78,1.09,0.69,1.31c-0.14,0.36-0.6,0.58-0.92,0.87c-0.22-0.28-0.64-0.58-0.61-0.83
		C958.63,529.93,958.99,529.6,959.43,528.94z"/>
	<path class="st0" d="M985.02,534.06c-0.51-0.44-1.2-0.86-1.15-1.03c0.23-0.7,0.69-1.33,1.07-1.99c0.41,0.66,0.88,1.29,1.18,2
		C986.17,533.18,985.53,533.6,985.02,534.06z"/>
	<path class="st0" d="M891.3,534.05c-0.52-0.43-1.23-0.84-1.18-1c0.24-0.71,0.7-1.34,1.08-2c0.42,0.66,0.89,1.3,1.2,2
		C892.46,533.18,891.81,533.6,891.3,534.05z"/>
	<path class="st0" d="M1058.9,530.71c0.31,0.71,0.66,1.4,0.89,2.12c0.07,0.2-0.17,0.72-0.33,0.75c-0.53,0.09-1.1,0.08-1.63-0.02
		c-0.14-0.03-0.33-0.56-0.25-0.78c0.24-0.7,0.59-1.35,0.9-2.03C1058.62,530.74,1058.76,530.73,1058.9,530.71z"/>
</g>
</svg>
